<?xml version="1.0" encoding="UTF-8"?>
<svg version="1.1" xmlns="http://www.w3.org/2000/svg" width="1024" height="1024">
<path d="M0 0 C337.92 0 675.84 0 1024 0 C1024 337.92 1024 675.84 1024 1024 C686.08 1024 348.16 1024 0 1024 C0 686.08 0 348.16 0 0 Z " fill="#FD6001" transform="translate(0,0)"/>
<path d="M0 0 C7.56839254 -0.27944834 13.6560114 0.81183178 19.6640625 5.59375 C22.97987701 10.38197166 22.40242979 15.62617366 21.6015625 21.15625 C13.86722238 57.58574776 -6.76447997 92.24079673 -24.78125 124.453125 C-27.61024766 129.52005041 -30.37880454 134.61920931 -33.1484375 139.71875 C-38.02065045 148.67746183 -42.97728398 157.58641155 -47.97119141 166.4777832 C-51.70472539 173.12625517 -55.41653488 179.78624606 -59.11181641 186.45605469 C-65.58010363 198.13036312 -72.12637942 209.75466327 -78.77490234 221.32714844 C-82.24841743 227.37994436 -85.70638846 233.44165086 -89.16662598 239.50204468 C-92.60197997 245.51883881 -96.03872882 251.53475229 -99.49345398 257.54045105 C-107.34975328 271.19810954 -115.04565465 284.92666558 -122.5078125 298.8046875 C-124.98569981 303.408102 -127.51272146 307.98052801 -130.0859375 312.53125 C-130.62311401 313.48161133 -130.62311401 313.48161133 -131.17114258 314.45117188 C-131.88618588 315.71528658 -132.60143562 316.97928453 -133.31689453 318.24316406 C-152.26686685 351.76279906 -170.5865028 385.8619467 -186.8359375 420.78125 C-187.58738037 422.39483398 -187.58738037 422.39483398 -188.35400391 424.04101562 C-195.12713047 438.08583074 -195.12713047 438.08583074 -198.3984375 453.15625 C-199.0584375 453.15625 -199.7184375 453.15625 -200.3984375 453.15625 C-215.09856623 436.4197398 -215.63502784 416.42107177 -214.3984375 395.15625 C-211.05385952 361.6805009 -195.19749008 328.37218186 -181.3984375 298.15625 C-180.66608887 296.54508301 -180.66608887 296.54508301 -179.91894531 294.90136719 C-176.77045682 287.9746925 -173.59648688 281.06017717 -170.3984375 274.15625 C-170.02734863 273.35477539 -169.65625977 272.55330078 -169.27392578 271.72753906 C-162.80321792 257.78374535 -155.97605395 244.05370739 -148.74316406 230.48974609 C-146.33007782 225.95260909 -143.99048184 221.38676157 -141.7109375 216.78125 C-133.35654463 199.95895931 -124.7308554 183.30105033 -115.37109375 167.01489258 C-110.57380114 158.60728881 -106.1567496 150.02534405 -101.75366211 141.40768433 C-96.65255666 131.43577275 -91.2667767 121.69747914 -85.3984375 112.15625 C-89.9240927 115.62942725 -94.01758164 119.4830723 -98.1484375 123.40625 C-99.67952857 124.85563666 -101.21078295 126.30485081 -102.7421875 127.75390625 C-103.51949219 128.49012207 -104.29679688 129.22633789 -105.09765625 129.98486328 C-107.24162058 132.00825236 -109.3954152 134.0203146 -111.5546875 136.02734375 C-120.69293714 144.53717507 -129.58762266 153.26292677 -138.35644531 162.15112305 C-139.20045898 163.00359619 -140.04447266 163.85606934 -140.9140625 164.734375 C-141.65946289 165.49137695 -142.40486328 166.24837891 -143.17285156 167.02832031 C-145.3984375 169.15625 -145.3984375 169.15625 -147.86621094 171.12011719 C-150.59023739 173.31047398 -152.95507466 175.65476929 -155.3984375 178.15625 C-156.70691646 179.47235838 -158.01669901 180.78717132 -159.32739258 182.10107422 C-160.42927666 183.20779984 -160.42927666 183.20779984 -161.55342102 184.33688354 C-164.89096107 187.68784155 -168.23117595 191.0361279 -171.5715332 194.38427734 C-173.32666808 196.14444499 -175.08090493 197.90550857 -176.83422852 199.66748047 C-179.38057744 202.22603578 -181.9302102 204.78127982 -184.48046875 207.3359375 C-185.25469681 208.11532684 -186.02892487 208.89471619 -186.82661438 209.69772339 C-191.00588167 213.87741493 -195.26738089 217.88608696 -199.76283264 221.72489929 C-201.66779875 223.39197345 -203.34325955 225.20251522 -205.0234375 227.09375 C-211.92466339 233.99497589 -220.36636513 239.60255067 -230.3359375 239.84375 C-238.59626116 239.2530117 -244.86653647 236.44070081 -250.3984375 230.15625 C-256.02682163 221.42408675 -257.77030875 212.27912548 -257.6484375 202.03125 C-257.64046143 200.79737549 -257.64046143 200.79737549 -257.63232422 199.53857422 C-257.51644112 191.95923308 -256.62216463 184.63917603 -255.3984375 177.15625 C-255.02289551 174.67716538 -254.64786622 172.19800301 -254.2734375 169.71875 C-253.98333689 167.86433766 -253.69229771 166.01007028 -253.3984375 164.15625 C-301.7273637 226.79953694 -301.7273637 226.79953694 -322.81640625 299.578125 C-322.54163584 302.43335664 -322.54163584 302.43335664 -320.2109375 305.34375 C-317.46464995 307.11357976 -315.63031143 307.87923223 -312.3984375 308.15625 C-312.3984375 308.81625 -312.3984375 309.47625 -312.3984375 310.15625 C-318.82925134 313.00515343 -324.20950334 313.66946717 -331.2109375 313.59375 C-332.18635498 313.58617676 -333.16177246 313.57860352 -334.16674805 313.57080078 C-341.21210432 313.40935329 -347.16243732 312.64234732 -353.3984375 309.15625 C-354.2028125 308.72054688 -355.0071875 308.28484375 -355.8359375 307.8359375 C-362.39911867 303.88507515 -366.73957589 299.00179283 -369.7734375 291.96875 C-371.02304886 284.34612073 -370.82366042 276.73843594 -369.3984375 269.15625 C-371.08686982 270.69690519 -372.77430423 272.23862662 -374.4609375 273.78125 C-374.99388428 274.26835449 -375.52683105 274.75545898 -376.07592773 275.25732422 C-379.12029906 278.04642897 -382.14618311 280.8530735 -385.1484375 283.6875 C-391.49415558 289.67456477 -397.85703371 295.51675403 -404.6796875 300.96484375 C-407.13451108 302.9435162 -409.53460223 304.97440341 -411.92358398 307.03173828 C-436.94316054 328.52726949 -464.62292612 347.0929062 -493.3984375 363.15625 C-494.55448486 363.80424561 -494.55448486 363.80424561 -495.73388672 364.46533203 C-527.29706495 382.0196476 -566.05407992 396.93217265 -602.3984375 387.15625 C-611.19123204 384.34596216 -618.29013884 380.00109527 -625.3984375 374.15625 C-626.47931641 373.28226563 -626.47931641 373.28226563 -627.58203125 372.390625 C-638.41236255 362.67921681 -644.39019763 347.22609535 -645.58496094 332.92333984 C-646.64654971 312.38028103 -641.95272334 292.74893875 -633.3984375 274.15625 C-633.03508301 273.35477539 -632.67172852 272.55330078 -632.29736328 271.72753906 C-623.8685742 253.22207782 -613.99095823 235.86754611 -602.3984375 219.15625 C-601.97127441 218.53218262 -601.54411133 217.90811523 -601.10400391 217.26513672 C-594.13443748 207.09300971 -586.74307891 197.39961875 -578.85888672 187.92089844 C-576.8036266 185.43754502 -574.79283485 182.91879786 -572.7734375 180.40625 C-568.3097218 174.95693284 -563.56274278 169.79073352 -558.76611328 164.63720703 C-557.48323117 163.24806693 -556.21940688 161.84139505 -554.95703125 160.43359375 C-548.90774153 153.70269392 -542.60042632 147.252479 -536.2109375 140.84375 C-535.36732666 139.99554688 -534.52371582 139.14734375 -533.65454102 138.2734375 C-529.29432645 133.92392548 -524.86738968 129.72341924 -520.1965332 125.70922852 C-517.59738941 123.46440113 -515.09899372 121.12208279 -512.5859375 118.78125 C-507.56168174 114.14475378 -502.37132624 109.77391756 -497.04150391 105.49023438 C-495.12034141 103.93046738 -493.21799799 102.34919116 -491.31640625 100.765625 C-483.52131155 94.27957702 -475.67971488 88.01584835 -467.3984375 82.15625 C-466.00381829 81.13992554 -464.61071931 80.12151328 -463.21875 79.1015625 C-454.13907517 72.45957981 -445.00200198 66.0221359 -435.3984375 60.15625 C-434.61549316 59.67720215 -433.83254883 59.1981543 -433.02587891 58.70458984 C-419.1268347 50.24716499 -404.96791197 42.39830085 -390.3984375 35.15625 C-388.96443604 34.44057861 -388.96443604 34.44057861 -387.50146484 33.71044922 C-359.14169081 19.71415919 -327.92142146 9.04797725 -296.0859375 8.90625 C-294.36600586 8.8753125 -294.36600586 8.8753125 -292.61132812 8.84375 C-280.51050587 8.78896416 -268.21022134 10.68564359 -259.13671875 19.3046875 C-252.39626276 26.58970457 -250.73329678 32.14245904 -251.02734375 42.0546875 C-252.63860299 66.30958633 -271.47874825 86.69461388 -287.3984375 103.15625 C-288.25050781 104.04957031 -289.10257813 104.94289063 -289.98046875 105.86328125 C-294.57522769 110.59050171 -299.45998467 114.80803699 -304.609375 118.921875 C-306.38515409 120.34448794 -308.14280509 121.79025394 -309.875 123.265625 C-340.41349729 149.17134716 -340.41349729 149.17134716 -356.3984375 152.15625 C-355.82283844 148.82497042 -354.88761611 147.34668712 -352.3984375 145.09375 C-348.56079157 141.41924286 -345.29711616 137.4280406 -341.96875 133.29296875 C-339.11501851 129.77576152 -336.13028712 126.37727438 -333.1484375 122.96875 C-330.89156055 120.37047175 -328.64225026 117.76581721 -326.3984375 115.15625 C-325.85638672 114.52589844 -325.31433594 113.89554687 -324.75585938 113.24609375 C-318.07262747 105.41279908 -311.97771348 97.3373304 -306.3359375 88.71875 C-305.5315625 87.49442261 -305.5315625 87.49442261 -304.7109375 86.24536133 C-297.91971779 75.97843341 -297.91971779 75.97843341 -296.3984375 64.15625 C-297.92228528 62.63240222 -299.27749122 62.98716099 -301.3984375 62.96875 C-302.1203125 62.95457031 -302.8421875 62.94039063 -303.5859375 62.92578125 C-340.21840582 65.92760852 -377.36409946 95.14691286 -405.3984375 117.15625 C-406.29820312 117.85621094 -407.19796875 118.55617188 -408.125 119.27734375 C-417.69932397 126.83042155 -426.97890389 134.77291199 -436 142.9765625 C-437.6321739 144.45987363 -439.27318668 145.93350392 -440.921875 147.3984375 C-446.61787778 152.46349843 -452.05437381 157.72295334 -457.3984375 163.15625 C-460.27033329 166.04292398 -463.16256682 168.90735684 -466.0703125 171.7578125 C-472.91257881 178.49233317 -479.53662101 185.17738852 -485.47265625 192.734375 C-487.30135106 195.03415346 -489.21889148 197.18536205 -491.2109375 199.34375 C-506.92300751 216.93510682 -521.88292175 237.70336906 -531.52148438 259.23632812 C-532.48350389 261.34248666 -533.50577515 263.41229433 -534.5390625 265.484375 C-540.69517819 277.92557337 -546.27846818 291.21873155 -542.859375 305.390625 C-541.44535893 309.02666631 -539.4487693 311.75295828 -536.3984375 314.15625 C-532.32831711 315.43231339 -528.25053263 315.34011847 -524.0234375 315.34375 C-523.2809375 315.35599609 -522.5384375 315.36824219 -521.7734375 315.38085938 C-517.22513961 315.39291317 -513.69695785 314.79907531 -509.3984375 313.15625 C-508.02812645 312.86261192 -506.6530666 312.58991911 -505.2734375 312.34375 C-494.56116971 310.02083466 -484.66597133 304.43686862 -475.0234375 299.40625 C-474.43304688 299.09944305 -473.84265625 298.79263611 -473.234375 298.47653198 C-464.28036699 293.81434887 -455.74035674 288.83975542 -447.3984375 283.15625 C-445.56857776 282.00487758 -443.73532046 280.85888425 -441.8984375 279.71875 C-435.2095045 275.46126856 -428.79410914 270.83697314 -422.3984375 266.15625 C-421.42052246 265.44178711 -421.42052246 265.44178711 -420.42285156 264.71289062 C-412.16610503 258.65927598 -404.15577549 252.41291993 -396.40234375 245.7265625 C-393.65149068 243.37277665 -390.85263274 241.10210614 -388.0234375 238.84375 C-382.10798137 234.03205245 -376.59453496 228.82286671 -371.0546875 223.58984375 C-367.88375034 220.59681669 -364.6531685 217.68278903 -361.3984375 214.78125 C-357.71092991 211.44674387 -354.39312304 208.0107502 -351.19921875 204.20703125 C-349.08264303 201.79661422 -346.81961539 199.58349342 -344.5234375 197.34375 C-340.17309955 193.04622343 -336.29730328 188.51490178 -332.48046875 183.7421875 C-330.66989277 181.49340457 -328.8146549 179.31474776 -326.8984375 177.15625 C-320.16761288 169.52591426 -313.91408984 161.568557 -307.85546875 153.3984375 C-305.08483215 149.70349179 -302.17665042 146.12225538 -299.2734375 142.53125 C-295.4515982 137.78977692 -291.78297081 133.01283028 -288.34765625 127.98046875 C-285.71354374 124.16390894 -282.99305309 120.41217473 -280.2734375 116.65625 C-279.71406494 115.8830542 -279.15469238 115.1098584 -278.57836914 114.31323242 C-277.42583916 112.72038067 -276.273086 111.12769038 -275.12011719 109.53515625 C-272.91460019 106.48771473 -270.7120755 103.43811953 -268.51000977 100.38818359 C-267.43265875 98.89611528 -266.35502042 97.40425438 -265.27709961 95.91259766 C-262.55128821 92.14028766 -259.82899997 88.36552108 -257.11328125 84.5859375 C-253.88808033 80.09982793 -250.64786449 75.62483719 -247.3984375 71.15625 C-246.88394043 70.44662109 -246.36944336 69.73699219 -245.83935547 69.00585938 C-224.80380959 40.08615619 -224.80380959 40.08615619 -210.3984375 37.15625 C-201.11885873 36.22008011 -190.56943314 37.48185645 -182.8359375 42.96875 C-176.20073572 48.6959768 -174.16301826 54.59526242 -173.3984375 63.15625 C-172.86313361 81.56475601 -181.11397177 100.88657514 -187.21679688 117.86669922 C-189.15661748 123.26693535 -191.06089352 128.67941975 -192.9609375 134.09375 C-193.30745361 135.06489746 -193.65396973 136.03604492 -194.01098633 137.03662109 C-194.32575928 137.93074707 -194.64053223 138.82487305 -194.96484375 139.74609375 C-195.24271729 140.52847412 -195.52059082 141.31085449 -195.80688477 142.11694336 C-196.53773313 144.28255964 -196.53773313 144.28255964 -196.3984375 147.15625 C-195.48320313 146.2178125 -194.56796875 145.279375 -193.625 144.3125 C-192.42474359 143.09348959 -191.22420831 141.87475371 -190.0234375 140.65625 C-189.42015625 140.03621094 -188.816875 139.41617188 -188.1953125 138.77734375 C-187.61523438 138.19082031 -187.03515625 137.60429687 -186.4375 137 C-185.90334473 136.45537109 -185.36918945 135.91074219 -184.81884766 135.34960938 C-183.3984375 134.15625 -183.3984375 134.15625 -181.3984375 134.15625 C-181.15480469 133.57488281 -180.91117188 132.99351562 -180.66015625 132.39453125 C-179.17138403 129.75345855 -177.52200488 128.30641526 -175.2109375 126.34375 C-170.53532094 122.25173725 -166.14009437 117.95046497 -161.7734375 113.53125 C-157.50662767 109.22613281 -153.25139905 105.00250043 -148.6171875 101.08984375 C-145.29806388 98.19729764 -142.10790867 95.16941371 -138.8984375 92.15625 C-133.81112579 87.38998223 -128.68852503 82.69729859 -123.3984375 78.15625 C-122.25591642 77.16083762 -121.11405812 76.16466429 -119.97265625 75.16796875 C-113.49811504 69.52105648 -106.99976483 63.91952703 -100.31640625 58.51953125 C-98.11839373 56.73934708 -95.93624836 54.94516593 -93.76171875 53.13671875 C-84.96795551 45.85648379 -75.92440488 39.09296113 -66.51904297 32.6237793 C-65.0172163 31.58446545 -63.52207723 30.53545714 -62.03173828 29.47973633 C-22.46231271 1.46334285 -22.46231271 1.46334285 0 0 Z " fill="#FDFCFC" transform="translate(825.3984375,258.84375)"/>
<path d="M0 0 C0.33 0 0.66 0 1 0 C1.65273326 3.02454618 2.1493847 5.90026751 2 9 C-0.4375 11.5625 -0.4375 11.5625 -3 13 C-2.45144652 8.428721 -1.58255197 4.32564205 0 0 Z " fill="#FD7423" transform="translate(631,394)"/>
<path d="M0 0 C0.33 0.66 0.66 1.32 1 2 C-0.07192184 3.3218362 -1.15802695 4.63217927 -2.25 5.9375 C-2.85328125 6.66839844 -3.4565625 7.39929688 -4.078125 8.15234375 C-6.10741134 10.10326334 -7.254407 10.61731779 -10 11 C-6.79239749 7.19364503 -3.59253891 3.45436433 0 0 Z " fill="#FD6D17" transform="translate(727,381)"/>
<path d="M0 0 C0.33 0.99 0.66 1.98 1 3 C-4.625 7 -4.625 7 -8 7 C-5.36 4.69 -2.72 2.38 0 0 Z " fill="#FD7F2B" transform="translate(456,527)"/>
</svg>
