<?xml version="1.0" encoding="UTF-8"?>
<svg version="1.1" xmlns="http://www.w3.org/2000/svg" width="1024" height="1024">
<path d="M0 0 C337.92 0 675.84 0 1024 0 C1024 337.92 1024 675.84 1024 1024 C686.08 1024 348.16 1024 0 1024 C0 686.08 0 348.16 0 0 Z " fill="#FE6A00" transform="translate(0,0)"/>
<path d="M0 0 C3.80814616 4.179462 4.23427008 7.92483216 4 13.4375 C1.62497363 40.00810751 -14.27755548 66.48151065 -26.64672852 89.64770508 C-29.16251333 94.37120842 -31.57430805 99.1361508 -33.9375 103.9375 C-37.49883622 111.14344746 -41.36339633 118.15590102 -45.296875 125.1640625 C-48.2438395 130.41781881 -51.12284644 135.70778118 -54 141 C-62.64885286 156.88634655 -71.48278155 172.66771617 -80.328125 188.4453125 C-82.82268163 192.89567639 -85.31173495 197.3490587 -87.796875 201.8046875 C-88.41723633 202.91577881 -89.03759766 204.02687012 -89.67675781 205.17163086 C-90.85443019 207.28112783 -92.03094523 209.39127153 -93.20605469 211.50219727 C-96.23198865 216.9184747 -99.33804217 222.27187677 -102.54833984 227.58081055 C-104.94858852 231.58082133 -107.25511405 235.63343076 -109.5625 239.6875 C-110.3344873 241.04198242 -110.3344873 241.04198242 -111.12207031 242.42382812 C-112.7496337 245.28165241 -114.3749813 248.14072813 -116 251 C-116.51481934 251.90443848 -117.02963867 252.80887695 -117.56005859 253.74072266 C-124.80201003 266.46962497 -131.92433319 279.26182642 -138.98291016 292.09301758 C-143.3236399 299.98065495 -147.70941084 307.84143831 -152.125 315.6875 C-161.92740846 333.13258229 -171.36904626 350.77544122 -180.640625 368.5078125 C-182.23534486 371.55529296 -183.85165402 374.58990375 -185.484375 377.6171875 C-190.53584522 387.02202103 -195.16893725 396.53821309 -199.52246094 406.28686523 C-201.65061747 411.05151482 -203.83769466 415.74513272 -206.25 420.375 C-208.56596826 424.92115991 -210.49480231 429.55056742 -212.3125 434.3125 C-212.56741211 434.9710498 -212.82232422 435.62959961 -213.08496094 436.30810547 C-214.66688962 440.5737017 -215.50633757 444.51057575 -216 449 C-216.66 449 -217.32 449 -218 449 C-228.95187723 437.23455474 -232.67135522 421.21588072 -232.39526367 405.53930664 C-232.30248763 403.02235012 -232.16338396 400.51334214 -232 398 C-231.91733887 396.70328369 -231.91733887 396.70328369 -231.83300781 395.38037109 C-230.5469372 378.1564352 -225.61013534 362.25709148 -220 346 C-219.42137207 344.31366455 -219.42137207 344.31366455 -218.83105469 342.59326172 C-208.88366196 313.94493942 -196.20420279 286.13039029 -182.5625 259.0625 C-181.99539307 257.93279785 -181.42828613 256.8030957 -180.84399414 255.63916016 C-179.72653871 253.41317745 -178.60832681 251.1875743 -177.48925781 248.96240234 C-175.93852987 245.87772482 -174.39269652 242.79065276 -172.85009766 239.7019043 C-172.2411788 238.48292628 -171.63147669 237.26433921 -171.02099609 236.04614258 C-169.07911332 232.16991929 -167.15296689 228.28624718 -165.234375 224.3984375 C-159.9930599 213.80680839 -154.62044075 203.33235863 -148.86181641 193.01220703 C-146.13236711 188.10709544 -143.53212667 183.16557794 -141.0625 178.125 C-137.54919752 170.97017892 -133.76227319 163.98255848 -129.92529297 156.99682617 C-125.62866469 149.17058542 -121.39711778 141.31073865 -117.1875 133.4375 C-116.27278931 131.72675293 -116.27278931 131.72675293 -115.33959961 129.98144531 C-114.15655739 127.76872714 -112.97353285 125.55599952 -111.79052734 123.34326172 C-108.87009874 117.89025527 -105.93569627 112.44480005 -103 107 C-106.56160515 110.32109446 -110.12183146 113.64363943 -113.6796875 116.96875 C-116.38622271 119.49727148 -119.09934011 122.01827706 -121.8203125 124.53125 C-130.64248169 132.70586833 -139.19729287 141.11635727 -147.64306641 149.67993164 C-148.48272949 150.5280542 -149.32239258 151.37617676 -150.1875 152.25 C-150.92355469 152.99765625 -151.65960937 153.7453125 -152.41796875 154.515625 C-154.47136407 156.49135786 -156.55043396 158.3532517 -158.70898438 160.20898438 C-163.52031935 164.38789871 -167.98681014 168.87952335 -172.46875 173.40625 C-173.34849487 174.28978149 -174.22823975 175.17331299 -175.13464355 176.08361816 C-177.92554506 178.88665133 -180.71329232 181.69279916 -183.5 184.5 C-187.17398738 188.2010055 -190.85165602 191.89831822 -194.53125 195.59375 C-195.36168823 196.43248657 -196.19212646 197.27122314 -197.04772949 198.13537598 C-201.32863665 202.43408317 -205.674056 206.57449423 -210.2948761 210.50723267 C-212.92756281 212.8120439 -215.2777122 215.3380194 -217.6875 217.875 C-225.6937172 226.08471017 -235.71481695 235.16575686 -247.6875 235.4375 C-255.12460223 235.27304319 -260.51614462 233.15619912 -266.03515625 228.15625 C-275.38386669 217.51737782 -275.79772882 203.73300586 -275.15039062 190.31445312 C-274.66940883 182.9123307 -273.74874413 175.56214713 -271.875 168.375 C-271.09123352 165.35190074 -270.92638354 163.08137473 -271 160 C-279.65151461 171.70083648 -287.82819439 183.63095867 -295.65478516 195.8984375 C-296.74138881 197.59598455 -297.8429962 199.28392206 -298.94921875 200.96875 C-304.55448044 209.54629331 -309.50565538 218.52039945 -314.54394531 227.4375 C-315.84530775 229.72775823 -317.16358184 232.00672901 -318.4921875 234.28125 C-324.07088762 243.89059058 -328.66267417 253.7763034 -333 264 C-333.50789063 265.17433594 -334.01578125 266.34867187 -334.5390625 267.55859375 C-337.82193326 275.24742263 -340.29093139 282.15850736 -340.4375 290.625 C-340.47746094 291.89601563 -340.51742188 293.16703125 -340.55859375 294.4765625 C-339.72315134 299.74627615 -336.71262756 301.65767029 -332.6875 304.8125 C-332.130625 305.204375 -331.57375 305.59625 -331 306 C-341.09717948 310.454638 -355.59182647 310.94926674 -366.0625 307.375 C-367.73405944 306.6392062 -369.38263969 305.84832134 -371 305 C-371.80953125 304.57589844 -372.6190625 304.15179687 -373.453125 303.71484375 C-380.31580281 299.63586803 -383.97939155 294.22490858 -387.375 287.125 C-388.84115604 279.79421982 -388.10755386 272.33754432 -387 265 C-391.50455069 269.01673068 -395.99439981 273.04481673 -400.39453125 277.17578125 C-406.58210404 282.98447045 -412.8130682 288.60045456 -419.4453125 293.90625 C-421.92737309 295.94047703 -424.27466703 298.06585219 -426.625 300.25 C-433.06652114 306.11711798 -440.051291 311.27703395 -447.01220703 316.50439453 C-448.70053308 317.77468259 -450.38048916 319.05608302 -452.05859375 320.33984375 C-467.73166367 332.27805445 -483.95216133 343.13000796 -501 353 C-502.33476614 353.78623645 -503.66940925 354.57268182 -505.00390625 355.359375 C-527.8319342 368.66115851 -551.16983403 378.49973048 -577 384 C-577.78600586 384.18103271 -578.57201172 384.36206543 -579.38183594 384.54858398 C-584.87550387 385.49578577 -590.50261479 385.22772705 -596.0625 385.25 C-597.95258789 385.2809375 -597.95258789 385.2809375 -599.88085938 385.3125 C-618.04377251 385.38759215 -632.79012471 379.48390241 -646.05078125 367.08203125 C-658.69683025 353.99398442 -663.57563759 337.48771045 -663.34765625 319.53417969 C-662.01627363 280.59123791 -640.37546431 243.75575471 -618.29101562 212.81298828 C-617.02011099 211.0282421 -615.76618523 209.23263662 -614.515625 207.43359375 C-608.80088629 199.25913152 -602.6948193 191.44474861 -596.39453125 183.71484375 C-595.13013483 182.16002574 -593.87691091 180.59613864 -592.625 179.03125 C-587.52456086 172.69213278 -582.14371623 166.65001915 -576.59228516 160.70556641 C-574.85305257 158.84259817 -573.12001651 156.97395917 -571.38671875 155.10546875 C-552.0280888 134.2898983 -552.0280888 134.2898983 -541.79296875 125.57421875 C-539.94570371 123.9523281 -538.22243286 122.25339795 -536.5 120.5 C-530.40787112 114.30362274 -523.64925722 108.81857123 -516.9375 103.3125 C-516.2057959 102.71163574 -515.4740918 102.11077148 -514.72021484 101.49169922 C-504.00918539 92.7125836 -493.29202945 84.02743435 -482 76 C-480.90037653 75.2027395 -479.80145353 74.40451225 -478.703125 73.60546875 C-470.65089777 67.76737808 -462.42537932 62.28308686 -454 57 C-452.49953125 56.05060547 -452.49953125 56.05060547 -450.96875 55.08203125 C-447.66701808 53.0184488 -444.34191586 50.99752538 -441 49 C-439.92081299 48.35272949 -439.92081299 48.35272949 -438.81982422 47.69238281 C-428.13614324 41.32603425 -417.25281865 35.49138185 -406.0625 30.0625 C-404.97437012 29.53116455 -403.88624023 28.9998291 -402.76513672 28.45239258 C-396.00976157 25.22686689 -389.19191921 22.53077775 -382.1184082 20.08325195 C-379.69826982 19.24256034 -377.31674835 18.36696629 -374.94140625 17.41015625 C-347.71026615 6.5491813 -314.54240462 -1.26386137 -286 9 C-277.92809048 12.92032713 -272.52324264 18.72631785 -269 27 C-266.77635515 46.62039572 -276.33310872 64.75609392 -288 80 C-291.10523808 83.60954743 -294.32360198 87.08237566 -297.61083984 90.52539062 C-299.85504428 92.90763927 -302.01264881 95.36704521 -304.1875 97.8125 C-308.21747036 102.24041414 -312.40553094 106.17397207 -317 110 C-317.8971875 110.78503906 -318.794375 111.57007813 -319.71875 112.37890625 C-331.72928931 122.85088126 -344.46596781 132.56194265 -358.1875 140.6875 C-358.85749023 141.08525635 -359.52748047 141.4830127 -360.21777344 141.89282227 C-364.67257325 144.44869953 -369.15305155 146.30168102 -374 148 C-372.50436232 142.97691495 -369.50090841 140.03186327 -365.9375 136.375 C-361.13619908 131.33026956 -356.58187506 126.19408758 -352.2265625 120.75390625 C-350.23286084 118.28801209 -348.18975746 115.87380526 -346.12084961 113.47094727 C-324.92673373 90.45621741 -324.92673373 90.45621741 -313.6875 62.5 C-313.73231458 60.06303855 -313.73231458 60.06303855 -315 59 C-326.69554373 57.23160164 -336.4386369 61.55608072 -347 66 C-348.5159375 66.62455078 -348.5159375 66.62455078 -350.0625 67.26171875 C-371.43939522 76.54893695 -391.24227506 89.28187937 -410 103 C-410.57508301 103.42055664 -411.15016602 103.84111328 -411.74267578 104.27441406 C-418.63811143 109.34053241 -425.36285559 114.60166865 -432 120 C-432.5990918 120.48033691 -433.19818359 120.96067383 -433.81542969 121.45556641 C-443.65035031 129.34233265 -453.00203524 137.57930703 -462.09765625 146.30859375 C-464.70291547 148.80218501 -467.35915251 151.21031283 -470.0859375 153.5703125 C-473.72368221 156.72432637 -477.1736262 160.01902678 -480.5625 163.4375 C-481.12694824 164.00460693 -481.69139648 164.57171387 -482.27294922 165.15600586 C-485.71931651 168.64166074 -489.04052364 172.19313011 -492.2109375 175.93359375 C-494.03719793 178.04296442 -495.93201245 180.07902976 -497.83959961 182.11474609 C-503.85556215 188.5566267 -509.33755143 195.31368372 -514.69433594 202.30908203 C-515.89546008 203.86461416 -517.12235978 205.40015315 -518.3515625 206.93359375 C-537.39736445 230.9160166 -564.5807539 266.37535335 -561 299 C-560.10396214 303.63569999 -558.75502172 306.38654486 -555 309.4375 C-544.82984835 314.73445399 -534.00272036 311.72729487 -523.625 308.53125 C-502.04052292 301.52796709 -481.90390901 290.43494384 -463 278 C-461.92806396 277.30438965 -461.92806396 277.30438965 -460.83447266 276.59472656 C-446.29745122 267.15968598 -432.42149366 256.96376664 -419 246 C-417.72535763 244.9751395 -416.45060856 243.9504117 -415.17578125 242.92578125 C-406.79017765 236.14296615 -398.7401583 229.140574 -391.00146484 221.62280273 C-390.37320801 221.01766846 -389.74495117 220.41253418 -389.09765625 219.7890625 C-388.54601807 219.24975098 -387.99437988 218.71043945 -387.42602539 218.15478516 C-386 217 -386 217 -384 217 C-384 216.34 -384 215.68 -384 215 C-382.49609375 213.51953125 -382.49609375 213.51953125 -380.4375 211.8125 C-374.48169773 206.73748539 -369.17500727 201.28155339 -364.07421875 195.35546875 C-361.98587185 192.98395617 -359.84525218 190.67154703 -357.68847656 188.36254883 C-351.85207672 182.10965387 -346.34828914 175.67888127 -341 169 C-339.93480368 167.69042118 -338.86830739 166.38189908 -337.80078125 165.07421875 C-336.65885162 163.67448124 -335.51692453 162.27474166 -334.375 160.875 C-333.5852478 159.90759888 -333.5852478 159.90759888 -332.77954102 158.9206543 C-326.01369285 150.60260999 -319.50741967 142.08323055 -313 133.5625 C-312.32710938 132.68529297 -311.65421875 131.80808594 -310.9609375 130.90429688 C-307.07245811 125.81098942 -303.31275904 120.65284838 -299.66162109 115.38696289 C-297.09549411 111.70065323 -294.45216112 108.07131921 -291.8125 104.4375 C-287.47218072 98.44985653 -283.18195312 92.43090508 -278.9375 86.375 C-273.57065366 78.73184615 -268.00351868 71.25406011 -262.36230469 63.81201172 C-261.10302921 62.13703993 -259.86351864 60.44993052 -258.6328125 58.75390625 C-241.76051998 35.66708606 -241.76051998 35.66708606 -232 34 C-220.42530382 32.87263006 -208.50516239 32.740507 -199.0625 40.375 C-198.381875 41.24125 -197.70125 42.1075 -197 43 C-195.9171875 44.3303125 -195.9171875 44.3303125 -194.8125 45.6875 C-188.85457098 56.5761289 -191.41236434 68.70458908 -194.0625 80.25 C-194.27511475 81.18239502 -194.48772949 82.11479004 -194.70678711 83.07543945 C-197.31507179 93.99564005 -201.11510793 104.48112845 -205 115 C-207.50447904 121.81589249 -209.89025935 128.63888198 -212.0703125 135.56640625 C-213 138 -213 138 -215 140 C-215.64767793 142.57061311 -215.64767793 142.57061311 -216 145 C-215.34 145 -214.68 145 -214 145 C-213.74476563 144.41863281 -213.48953125 143.83726562 -213.2265625 143.23828125 C-211.87497276 140.77184519 -210.38307306 139.15157146 -208.375 137.1875 C-207.74335937 136.56230469 -207.11171875 135.93710937 -206.4609375 135.29296875 C-204.45959923 133.42822976 -202.42658318 131.64358431 -200.3515625 129.86328125 C-195.32204575 125.48599888 -190.67686393 120.7477255 -186 116 C-180.70727234 110.6270795 -175.40691043 105.3677224 -169.6796875 100.45703125 C-167.68681895 98.72833364 -165.83204045 96.89747047 -164 95 C-160.8501997 91.80738688 -157.58780511 88.82838721 -154.1875 85.90625 C-151.64488601 83.69054352 -149.16889802 81.40901408 -146.6875 79.125 C-142.12551313 74.96053066 -137.4221757 71.02781891 -132.6171875 67.1484375 C-130.18764512 65.15403704 -127.83566555 63.10293019 -125.5 61 C-120.4711296 56.49257662 -115.27643733 52.21328587 -110 48 C-109.3591748 47.48663086 -108.71834961 46.97326172 -108.05810547 46.44433594 C-96.73046297 37.4023036 -85.07329803 29.01489673 -73 21 C-71.8874585 20.25508301 -71.8874585 20.25508301 -70.75244141 19.49511719 C-22.01117186 -13.0855407 -22.01117186 -13.0855407 0 0 Z " fill="#FDFBFA" transform="translate(809,227)"/>
<path d="M0 0 C0.495 1.485 0.495 1.485 1 3 C-11.21 15.21 -23.42 27.42 -36 40 C-36.99 39.67 -37.98 39.34 -39 39 C-16.09824181 14.32641854 -16.09824181 14.32641854 -5.625 5.40234375 C-3.64902936 3.69711909 -1.80707351 1.88236824 0 0 Z " fill="#FDE6D7" transform="translate(273,347)"/>
<path d="M0 0 C0 0.33 0 0.66 0 1 C-0.63800537 1.01981934 -1.27601074 1.03963867 -1.93334961 1.06005859 C-13.81437819 1.4462427 -25.56359929 1.95753364 -37.34375 3.59765625 C-41.28348738 4.03119573 -45.04041221 4.06570112 -49 4 C-36.07015694 -3.36104927 -14.10652606 -3.1583428 0 0 Z " fill="#FEE2CF" transform="translate(511,233)"/>
<path d="M0 0 C0.33 0 0.66 0 1 0 C0.98952637 0.93682617 0.97905273 1.87365234 0.96826172 2.83886719 C0.93382258 6.3725845 0.90892965 9.906119 0.89013672 13.43994141 C0.88018616 14.95852504 0.86662084 16.47709007 0.84912109 17.99560547 C0.75547311 26.34129347 0.88203297 34.27339404 2.56689453 42.49316406 C3.00788343 45.04562967 3.07376809 47.41521246 3 50 C-6.02187769 36.46718347 -2.52919181 15.10740462 0 0 Z " fill="#FDE1CF" transform="translate(579,610)"/>
<path d="M0 0 C0.66 0.33 1.32 0.66 2 1 C1.68546875 1.62003906 1.3709375 2.24007813 1.046875 2.87890625 C-5.60528163 16.64406168 -7.66302641 28.95298386 -7 44 C-7.66 44 -8.32 44 -9 44 C-10.20096761 40.39709716 -9.9902807 37.28793714 -9.75 33.5625 C-9.70480225 32.85109863 -9.65960449 32.13969727 -9.61303711 31.40673828 C-8.97681274 22.95472042 -6.87582208 14.963815 -4 7 C-3.34 7 -2.68 7 -2 7 C-1.34 4.69 -0.68 2.38 0 0 Z " fill="#FDDFC9" transform="translate(255,486)"/>
<path d="M0 0 C-1.65863505 4.32504836 -4.871041 7.09418825 -8.125 10.25 C-8.68832031 10.80429687 -9.25164063 11.35859375 -9.83203125 11.9296875 C-11.21686028 13.29104485 -12.60783204 14.64614859 -14 16 C-14.99 15.67 -15.98 15.34 -17 15 C-14.87968717 12.68316385 -12.75297653 10.37229731 -10.625 8.0625 C-10.02171875 7.40314453 -9.4184375 6.74378906 -8.796875 6.06445312 C-8.21679688 5.43603516 -7.63671875 4.80761719 -7.0390625 4.16015625 C-6.23782959 3.28822632 -6.23782959 3.28822632 -5.42041016 2.39868164 C-3.60803601 0.61403203 -2.56269579 0 0 0 Z " fill="#FDE6D6" transform="translate(572,264)"/>
<path d="M0 0 C1.32 0.66 2.64 1.32 4 2 C-2.61450896 4.91816572 -9.01056918 5.18169704 -16.125 5.1875 C-16.92292969 5.19974609 -17.72085937 5.21199219 -18.54296875 5.22460938 C-19.31511719 5.22654297 -20.08726562 5.22847656 -20.8828125 5.23046875 C-21.92526123 5.23663208 -21.92526123 5.23663208 -22.98876953 5.24291992 C-25.33235468 4.95985762 -26.95764196 4.15508537 -29 3 C-28.37432129 3.00523682 -27.74864258 3.01047363 -27.10400391 3.01586914 C-24.27767943 3.03661618 -21.45137095 3.04965286 -18.625 3.0625 C-17.64015625 3.07087891 -16.6553125 3.07925781 -15.640625 3.08789062 C-14.69960938 3.09111328 -13.75859375 3.09433594 -12.7890625 3.09765625 C-11.91975098 3.10289307 -11.05043945 3.10812988 -10.15478516 3.11352539 C-7.94950006 3.14122351 -7.94950006 3.14122351 -6 2 C-4.00039988 1.960008 -1.99952758 1.95653201 0 2 C0 1.34 0 0.68 0 0 Z " fill="#FDE1CB" transform="translate(474,531)"/>
<path d="M0 0 C0.33 0.66 0.66 1.32 1 2 C0.07421875 3.9453125 0.07421875 3.9453125 -1.3125 6.125 C-1.76238281 6.84945313 -2.21226562 7.57390625 -2.67578125 8.3203125 C-3.11277344 8.87460937 -3.54976562 9.42890625 -4 10 C-4.66 10 -5.32 10 -6 10 C-6.268125 10.556875 -6.53625 11.11375 -6.8125 11.6875 C-8.10899496 14.21225334 -9.42476323 16.63714484 -11 19 C-11.66 19 -12.32 19 -13 19 C-13 19.66 -13 20.32 -13 21 C-13.66 20.67 -14.32 20.34 -15 20 C-12.68887531 16.85315414 -10.37587072 13.70769499 -8.0625 10.5625 C-7.40314453 9.66466797 -6.74378906 8.76683594 -6.06445312 7.84179688 C-5.43603516 6.98779297 -4.80761719 6.13378906 -4.16015625 5.25390625 C-3.57886963 4.46314697 -2.99758301 3.6723877 -2.39868164 2.85766602 C-1 1 -1 1 0 0 Z " fill="#FDE0CE" transform="translate(554,281)"/>
<path d="M0 0 C0.33 0.66 0.66 1.32 1 2 C0.67 2.66 0.34 3.32 0 4 C1.98 3.67 3.96 3.34 6 3 C1.92000285 6.69749741 -1.86395088 8.2589664 -7 10 C-5.6062718 5.56541027 -3.39417765 3.12621626 0 0 Z " fill="#FED9BF" transform="translate(442,365)"/>
<path d="M0 0 C0.66 0 1.32 0 2 0 C2 4.62 2 9.24 2 14 C1.34 14 0.68 14 0 14 C0 16.31 0 18.62 0 21 C-0.33 21 -0.66 21 -1 21 C-1.12109311 13.92278069 -0.85373239 7.02804699 0 0 Z " fill="#FDDAC3" transform="translate(422,490)"/>
<path d="M0 0 C0.33 0.66 0.66 1.32 1 2 C-0.61000397 5.13950774 -2.38499232 7.63404067 -5 10 C-5.99 9.67 -6.98 9.34 -8 9 C-5.36 6.03 -2.72 3.06 0 0 Z " fill="#FEE1CD" transform="translate(223,398)"/>
<path d="M0 0 C0.66 0.33 1.32 0.66 2 1 C-1.16952847 4.26008643 -4.39937989 7.22237877 -8 10 C-8.66 9.67 -9.32 9.34 -10 9 C-6.7 6.03 -3.4 3.06 0 0 Z " fill="#FDDEC9" transform="translate(668,301)"/>
<path d="M0 0 C0.33 0.66 0.66 1.32 1 2 C-0.68988328 5.21077824 -2.6455311 8.23605824 -5 11 C-5.66 11 -6.32 11 -7 11 C-5.22054913 6.95579349 -2.60470327 3.53921513 0 0 Z " fill="#FEE0CC" transform="translate(205,420)"/>
<path d="M0 0 C1.125 3.75 1.125 3.75 0 6 C-0.66 6 -1.32 6 -2 6 C-2.33 7.65 -2.66 9.3 -3 11 C-3.66 11 -4.32 11 -5 11 C-3.77472971 6.94718288 -2.30119506 3.55639236 0 0 Z " fill="#FDDDC7" transform="translate(655,430)"/>
<path d="M0 0 C0.66 0.33 1.32 0.66 2 1 C-0.25 3.5625 -0.25 3.5625 -3 6 C-4.32 5.67 -5.64 5.34 -7 5 C-4.69 3.35 -2.38 1.7 0 0 Z " fill="#FDDDC8" transform="translate(358,497)"/>
<path d="M0 0 C0.66 0.33 1.32 0.66 2 1 C-0.33343353 4.50015029 -2.16917814 5.40382422 -6 7 C-6.66 6.67 -7.32 6.34 -8 6 C-5.36 4.02 -2.72 2.04 0 0 Z " fill="#FEDAC1" transform="translate(376,484)"/>
<path d="M0 0 C0.33 0.66 0.66 1.32 1 2 C0.67 2.66 0.34 3.32 0 4 C1.98 3.67 3.96 3.34 6 3 C4.8125 4.5 4.8125 4.5 3 6 C0.3125 6.1875 0.3125 6.1875 -2 6 C-1.34 4.02 -0.68 2.04 0 0 Z " fill="#FEE7D7" transform="translate(442,365)"/>
<path d="M0 0 C0.33 0.99 0.66 1.98 1 3 C-1.97 5.475 -1.97 5.475 -5 8 C-5 5 -5 5 -2.5 2.3125 C-1.675 1.549375 -0.85 0.78625 0 0 Z " fill="#FDEBDE" transform="translate(625,341)"/>
<path d="M0 0 C0.6875 1.6875 0.6875 1.6875 1 4 C-0.3125 6.75 -0.3125 6.75 -2 9 C-2.66 9 -3.32 9 -4 9 C-2.94124926 5.59687262 -1.99097846 2.98646769 0 0 Z " fill="#FDE1CF" transform="translate(679,385)"/>
<path d="M0 0 C0.33 0.99 0.66 1.98 1 3 C-0.9375 5.6875 -0.9375 5.6875 -3 8 C-3.99 7.67 -4.98 7.34 -6 7 C-4.02 4.69 -2.04 2.38 0 0 Z " fill="#FDDBC2" transform="translate(463,340)"/>
<path d="M0 0 C0.33 0.99 0.66 1.98 1 3 C-0.32 4.32 -1.64 5.64 -3 7 C-3.99 6.67 -4.98 6.34 -6 6 C-4.02 4.02 -2.04 2.04 0 0 Z " fill="#FDE3D2" transform="translate(657,311)"/>
</svg>
