<?xml version="1.0" encoding="UTF-8"?>
<svg version="1.1" xmlns="http://www.w3.org/2000/svg" width="1024" height="1024">
<path d="M0 0 C337.92 0 675.84 0 1024 0 C1024 337.92 1024 675.84 1024 1024 C686.08 1024 348.16 1024 0 1024 C0 686.08 0 348.16 0 0 Z " fill="#0F0C12" transform="translate(0,0)"/>
<path d="M0 0 C4.11716046 4.01423145 4.87890484 6.89389404 5.19921875 12.46484375 C5.17133581 17.83958361 3.66345685 22.65639879 2.0625 27.75 C1.59106567 29.2661792 1.59106567 29.2661792 1.11010742 30.81298828 C-2.1408243 40.93774904 -6.39283698 50.43355631 -11 60 C-11.95268741 62.01000715 -12.90447142 64.02044267 -13.85546875 66.03125 C-16.86612487 72.37255198 -19.92213404 78.69107567 -23 85 C-23.46696289 85.95729004 -23.93392578 86.91458008 -24.41503906 87.90087891 C-30.70289853 100.74250235 -37.34549983 113.35585304 -44.26806641 125.86572266 C-45.86396431 128.75381644 -47.45338633 131.64533582 -49.04017639 134.53843689 C-50.46533855 137.13651271 -51.89246343 139.7335072 -53.31997681 142.33029175 C-54.01231689 143.59006592 -54.70420623 144.85008795 -55.39559937 146.11038208 C-58.99679892 152.67092545 -62.67090089 159.16826424 -66.55517578 165.56616211 C-69.16992276 169.97076039 -71.57716911 174.48788128 -74 179 C-80.65557577 191.35121272 -87.45678275 203.58441579 -94.57177734 215.67773438 C-99.70017589 224.42114148 -104.62983526 233.26729469 -109.53222656 242.13891602 C-113.3247452 248.99769485 -117.15954707 255.82847852 -121.0625 262.625 C-137.52415061 291.31302219 -153.52005668 320.28592124 -169.10595703 349.45898438 C-170.42847114 351.93379747 -171.75556765 354.40609145 -173.08544922 356.87695312 C-181.74146797 372.965642 -190.18338097 389.13833294 -198.1875 405.5625 C-198.53358307 406.26913788 -198.87966614 406.97577576 -199.23623657 407.7038269 C-203.01106654 415.42839509 -206.59521307 423.2095716 -209.8984375 431.1484375 C-210.19022385 431.84501968 -210.48201019 432.54160187 -210.78263855 433.2592926 C-212.91364515 438.47466024 -214.20498402 443.43488811 -215 449 C-215.66 449 -216.32 449 -217 449 C-229.85030036 435.35542059 -231.64785619 417.56091724 -231.13623047 399.68261719 C-228.1435761 340.75199682 -192.63720056 281.7184714 -167 230 C-166.52326843 229.03766449 -166.04653687 228.07532898 -165.55535889 227.08383179 C-155.4364941 206.67970535 -155.4364941 206.67970535 -150.125 197.1875 C-145.79633652 189.35142145 -141.60681843 181.45451618 -137.5 173.5 C-133.00115931 164.79548952 -128.40263439 156.15644382 -123.68652344 147.56787109 C-119.32213684 139.61463582 -115.02930863 131.62421809 -110.75 123.625 C-110.41131897 122.99201996 -110.07263794 122.35903992 -109.72369385 121.70687866 C-107.81465113 118.13853043 -105.90679423 114.56955019 -104 111 C-106.36952647 111 -109.07376196 114.68263459 -110.8125 116.3125 C-111.9997431 117.41824465 -113.18724897 118.52370722 -114.375 119.62890625 C-114.97957031 120.1923877 -115.58414063 120.75586914 -116.20703125 121.33642578 C-118.39144413 123.36319449 -120.59441861 125.36887006 -122.79931641 127.37329102 C-128.00901733 132.11312701 -133.06735848 136.971888 -138 142 C-141.41506296 145.46506819 -144.92322664 148.78027604 -148.53515625 152.0390625 C-155.03748342 157.9536977 -161.24918018 164.13511896 -167.4375 170.375 C-168.49650339 171.43904239 -169.55574761 172.50284516 -170.61523438 173.56640625 C-172.5515344 175.51074636 -174.48617772 177.45667902 -176.41967773 179.40380859 C-180.6989435 183.70939211 -184.99453978 187.93055206 -189.5 192 C-196.737429 198.59784727 -203.61247705 205.55422856 -210.48828125 212.52539062 C-232.2588335 234.50905822 -232.2588335 234.50905822 -247.9375 236.5 C-254.32099871 236.17003784 -259.61790361 233.16517009 -264.2734375 228.93359375 C-273.83497263 218.14576508 -275.07095269 204.6309179 -274.25390625 190.81445312 C-273.47845535 182.21887818 -271.91933351 173.70428012 -270.3671875 165.22045898 C-269.9456167 163.04623529 -269.9456167 163.04623529 -270 161 C-276.95513027 169.95736474 -283.29783296 179.25364713 -289.51220703 188.73583984 C-290.89294477 190.8370807 -292.2864153 192.92920309 -293.68359375 195.01953125 C-327.00345433 242.35149877 -327.00345433 242.35149877 -339 297 C-337.89907854 300.10848411 -337.12840338 301.38564705 -334.2421875 302.95703125 C-332.52770711 303.71709442 -330.76539139 304.36712384 -329 305 C-333.04401661 309.5840561 -338.19631272 309.79231946 -344.05859375 310.2265625 C-357.31172292 310.57658512 -367.39160069 307.121038 -378.25 299.8125 C-384.79446133 293.11930092 -387.22884619 285.08519781 -387.16796875 275.94140625 C-386.93060567 271.78479233 -386.05514301 268.02273273 -385 264 C-385.70125 264.71285156 -386.4025 265.42570312 -387.125 266.16015625 C-391.92039258 271.0107366 -396.72613604 275.76871385 -401.91796875 280.19921875 C-404.43153578 282.37324202 -406.86776229 284.62390488 -409.3125 286.875 C-413.80498638 290.97199927 -418.41907282 294.86120426 -423.15234375 298.67578125 C-425.59873317 300.67249141 -427.99543633 302.71484267 -430.3815918 304.78271484 C-451.54352819 323.0391602 -474.84002758 339.01237729 -499 353 C-500.33476614 353.78623645 -501.66940925 354.57268182 -503.00390625 355.359375 C-521.88260546 366.36812957 -541.34402749 374.63182331 -562.20532227 381.12133789 C-564.1963674 381.74733347 -566.17899085 382.40038617 -568.15527344 383.0715332 C-586.77450268 389.14850959 -610.87953961 387.8298836 -628.3125 379.375 C-635.12739597 375.86313417 -640.7599763 371.63935636 -646 366 C-646.94746094 364.98873047 -646.94746094 364.98873047 -647.9140625 363.95703125 C-660.3487851 349.35855736 -663.41282232 331.60333796 -662 313 C-661.18295002 306.21874705 -659.70666618 299.60723621 -658 293 C-657.81759766 292.28618164 -657.63519531 291.57236328 -657.44726562 290.83691406 C-649.19946372 260.03065046 -630.51632409 231.49117829 -612 206 C-611.46842285 205.2673291 -610.9368457 204.5346582 -610.38916016 203.77978516 C-604.0502014 195.08732149 -597.41032592 186.7329686 -590.37207031 178.59863281 C-588.94868806 176.9402152 -587.54632797 175.26588358 -586.1484375 173.5859375 C-581.61675752 168.14792153 -577.04132993 162.86334467 -571.94091797 157.94189453 C-570.16629897 156.16638264 -568.53964212 154.34405313 -566.91796875 152.4296875 C-562.37100701 147.19531012 -557.47367657 142.32773338 -552.5625 137.4375 C-551.20801758 136.0772168 -551.20801758 136.0772168 -549.82617188 134.68945312 C-545.26879061 130.13867198 -540.66002541 125.72037584 -535.77172852 121.52661133 C-533.17933701 119.29287506 -530.69150433 116.95740123 -528.1875 114.625 C-523.61836664 110.40850096 -518.93377247 106.39241956 -514.0859375 102.49609375 C-511.75812556 100.61321802 -509.4554198 98.71149369 -507.1640625 96.78515625 C-497.69910693 88.85175408 -487.97465401 81.43653574 -477.87841797 74.32470703 C-476.36191234 73.25522957 -474.85348314 72.17430524 -473.34765625 71.08984375 C-429.99274076 40.07850701 -374.86744657 7.66880284 -320 5 C-318.73800781 4.93554688 -317.47601562 4.87109375 -316.17578125 4.8046875 C-302.48354366 4.33330501 -285.76877905 6.03518151 -275.16796875 15.6640625 C-269.01229605 22.46375935 -267.2583134 28.86534888 -267.59765625 37.94140625 C-269.17867105 58.59310421 -283.82266335 79.65564023 -298.4609375 93.49609375 C-300.08141379 95.07955408 -301.49928586 96.75030099 -302.9375 98.5 C-306.25832241 102.44622929 -310.07727795 105.67162978 -314 109 C-314.5782251 109.51256348 -315.1564502 110.02512695 -315.75219727 110.55322266 C-320.42392242 114.69353693 -325.21552134 118.60168007 -330.1875 122.375 C-330.92798584 122.93735352 -331.66847168 123.49970703 -332.43139648 124.07910156 C-341.48262882 130.91559798 -350.64139132 137.36650933 -360.5 143 C-361.5065564 143.57959473 -361.5065564 143.57959473 -362.53344727 144.17089844 C-365.99365813 146.10027046 -369.04960527 147.51379757 -373 148 C-371.49993609 144.55220914 -369.49590738 142.17639467 -366.9375 139.4375 C-363.76214883 135.97439841 -360.70171816 132.46804744 -357.75 128.8125 C-354.12117083 124.32237804 -350.36727982 119.96503412 -346.5625 115.625 C-340.74402791 108.95617473 -335.25186801 102.12251665 -330 95 C-329.22914063 93.96488281 -328.45828125 92.92976563 -327.6640625 91.86328125 C-323.43674501 85.99841927 -319.78450082 80.05770604 -316.5 73.625 C-316.16145996 72.97104248 -315.82291992 72.31708496 -315.47412109 71.64331055 C-313.38351981 67.39335956 -312.43894825 63.71869365 -312 59 C-349.376407 59.59071908 -384.08870821 84.92763734 -413.07763672 106.5703125 C-415.03512578 108.02612351 -417.00291833 109.46706664 -418.97265625 110.90625 C-432.03119272 120.49878833 -444.08444418 131.09211608 -455.921875 142.140625 C-457.83207269 143.92268521 -459.75699665 145.678234 -461.703125 147.421875 C-468.79681923 153.78593211 -475.56708581 160.45891631 -482.3125 167.1875 C-482.78871796 167.66112976 -483.26493591 168.13475952 -483.75558472 168.6227417 C-489.3952583 174.23822841 -494.85036151 179.93189059 -500 186 C-500.87708274 187.00956782 -501.75465274 188.01871262 -502.6328125 189.02734375 C-523.31037334 213.17277137 -547.03573013 242.21740595 -556.1484375 273.19140625 C-557 276 -557 276 -557.75341797 277.79589844 C-559.93503843 283.01680425 -560.46049134 287.49207074 -560.375 293.125 C-560.38660156 293.89714844 -560.39820313 294.66929687 -560.41015625 295.46484375 C-560.38101145 301.16750931 -559.22607087 305.31016436 -555.5 309.8125 C-550.30322643 313.92661241 -541.29631123 312.59849847 -535 312 C-499.71086657 306.13931575 -466.15141817 282.64437332 -438 262 C-436.96230469 261.24589844 -435.92460937 260.49179687 -434.85546875 259.71484375 C-411.67928344 242.61969234 -390.32225136 223.364121 -369.9375 203.0625 C-368.75957886 201.89158813 -368.75957886 201.89158813 -367.55786133 200.69702148 C-362.83285305 195.95886148 -358.35400488 191.07912993 -354 186 C-352.95458 184.80861752 -351.90773357 183.618485 -350.859375 182.4296875 C-344.09619158 174.71398841 -337.60873999 166.84520381 -331.33837891 158.72509766 C-329.99996828 156.99995912 -328.64902442 155.28551319 -327.29296875 153.57421875 C-320.36845971 144.83387233 -313.6464117 135.95321419 -307 127 C-306.43877441 126.24525391 -305.87754883 125.49050781 -305.29931641 124.71289062 C-297.51078871 114.22958889 -289.87784905 103.65044821 -282.37744141 92.95947266 C-243.62592547 37.83368979 -243.62592547 37.83368979 -228 34 C-216.44461203 32.98698943 -206.99160778 33.86845222 -197.625 41.125 C-191.89162898 46.5914327 -189.82264093 52.93536638 -189.5625 60.75 C-190.23153479 74.37222864 -194.78622287 87.31431711 -198.93310547 100.19580078 C-199.87462089 103.123821 -200.80323397 106.05571146 -201.73046875 108.98828125 C-204.50643469 117.70571299 -207.29488807 126.31792969 -211.02856445 134.68017578 C-212.44137562 138.05402139 -213.24417962 141.42703092 -214 145 C-213.64550781 144.56171875 -213.29101562 144.1234375 -212.92578125 143.671875 C-208.7427875 138.68874443 -204.14604393 134.28886172 -199.33447266 129.92797852 C-194.81645741 125.81049653 -190.48549747 121.53330671 -186.1875 117.1875 C-181.84002288 112.79561051 -177.47867571 108.52518834 -172.75390625 104.53515625 C-170.74166518 102.77388512 -168.87628014 100.90520161 -167 99 C-163.89286078 95.85079119 -160.67509696 92.92023033 -157.3203125 90.0390625 C-154.95935311 87.96428001 -152.66013453 85.83473515 -150.36328125 83.68969727 C-144.93341996 78.61976996 -139.39856075 73.78935279 -133.6015625 69.13671875 C-131.05013271 67.04117506 -128.61673227 64.86036845 -126.1875 62.625 C-121.21972151 58.10385144 -115.99391436 53.98892924 -110.6875 49.87890625 C-108.24218693 47.98223768 -105.82848895 46.05452725 -103.4375 44.08984375 C-94.39631033 36.6771228 -84.97576452 30.00311559 -75.25439453 23.51220703 C-73.18841872 22.12638787 -71.13679167 20.72230179 -69.08984375 19.30859375 C-22.46308917 -12.72067072 -22.46308917 -12.72067072 0 0 Z " fill="#FD7E01" transform="translate(842,263)"/>
<path d="M0 0 C0.66 0.99 1.32 1.98 2 3 C0.18518249 10.93982662 -7.33943899 17.75778882 -13.1875 22.9375 C-15.39805198 25.45295571 -16.12631325 27.79648191 -17 31 C-18.32 31 -19.64 31 -21 31 C-18.32522035 26.16080096 -15.44544349 21.65059203 -12.1875 17.1875 C-11.30820094 15.97033576 -10.42929756 14.75288558 -9.55078125 13.53515625 C-8.90616943 12.64401123 -8.90616943 12.64401123 -8.24853516 11.73486328 C-5.4555762 7.85399383 -2.7309564 3.92461947 0 0 Z " fill="#EE7704" transform="translate(568,344)"/>
<path d="M0 0 C4.12589154 3.80229221 5.69755325 8.21345724 6.29296875 13.69921875 C6.54607807 22.7267844 5.50184086 33.01412578 1 41 C0.79599161 35.79778606 0.80899188 31.82021786 3 27 C2.67 26.34 2.34 25.68 2 25 C2.66 25 3.32 25 4 25 C3.67 20.05 3.34 15.1 3 10 C2.34 10 1.68 10 1 10 C1.33 8.35 1.66 6.7 2 5 C1.34 4.67 0.68 4.34 0 4 C0 2.68 0 1.36 0 0 Z " fill="#D76B09" transform="translate(646,307)"/>
<path d="M0 0 C0 3.32422095 -0.63852392 4.56425081 -2.1875 7.44921875 C-2.86425781 8.72055664 -2.86425781 8.72055664 -3.5546875 10.01757812 C-4.03164063 10.89865234 -4.50859375 11.77972656 -5 12.6875 C-5.47695313 13.58017578 -5.95390625 14.47285156 -6.4453125 15.39257812 C-7.6247205 17.59807108 -8.80978826 19.80032409 -10 22 C-10.33 22 -10.66 22 -11 22 C-10.67 19.36 -10.34 16.72 -10 14 C-11.32 13.67 -12.64 13.34 -14 13 C-9.52647956 8.40410362 -4.91935902 4.11619836 0 0 Z " fill="#181013" transform="translate(739,371)"/>
<path d="M0 0 C0.33 1.32 0.66 2.64 1 4 C2.32 4.33 3.64 4.66 5 5 C5 4.34 5 3.68 5 3 C5.99 3.33 6.98 3.66 8 4 C4.82505993 6.55375615 1.51896339 8.37447153 -2.125 10.1875 C-3.17945313 10.71730469 -4.23390625 11.24710937 -5.3203125 11.79296875 C-8 13 -8 13 -10 13 C-8.48446596 9.52224821 -6.4226544 7.0442016 -3.875 4.25 C-3.15054687 3.45078125 -2.42609375 2.6515625 -1.6796875 1.828125 C-0.84824219 0.92320312 -0.84824219 0.92320312 0 0 Z " fill="#EE7502" transform="translate(479,398)"/>
<path d="M0 0 C1.32 0.33 2.64 0.66 4 1 C-4.88671875 9.88671875 -4.88671875 9.88671875 -6.47143555 11.4675293 C-7.90689868 12.90666076 -9.32894065 14.35914384 -10.75 15.8125 C-12.79381515 17.79954251 -14.3845112 18.93443049 -17 20 C-16.67 18.68 -16.34 17.36 -16 16 C-15.01 16 -14.02 16 -13 16 C-12.9175 15.236875 -12.835 14.47375 -12.75 13.6875 C-12 11 -12 11 -10.125 9.1875 C-8 8 -8 8 -5 8 C-4.896875 7.360625 -4.79375 6.72125 -4.6875 6.0625 C-4.460625 5.381875 -4.23375 4.70125 -4 4 C-3.01 3.67 -2.02 3.34 -1 3 C-0.67 2.01 -0.34 1.02 0 0 Z " fill="#E87305" transform="translate(712,392)"/>
<path d="M0 0 C-0.40839111 0.37809814 -0.81678223 0.75619629 -1.23754883 1.14575195 C-3.09643274 2.86739042 -4.95447386 4.58993586 -6.8125 6.3125 C-7.45509766 6.90740234 -8.09769531 7.50230469 -8.75976562 8.11523438 C-9.38173828 8.69208984 -10.00371094 9.26894531 -10.64453125 9.86328125 C-11.21534424 10.39219971 -11.78615723 10.92111816 -12.37426758 11.46606445 C-13.9463263 12.94935699 -15.47983718 14.4637295 -17 16 C-16.55037804 14.03964825 -16.09001752 12.08175691 -15.625 10.125 C-15.36976563 9.03445313 -15.11453125 7.94390625 -14.8515625 6.8203125 C-14 4 -14 4 -12 2 C-12 2.99 -12 3.98 -12 5 C-10.02 4.34 -8.04 3.68 -6 3 C-6 2.01 -6 1.02 -6 0 C-3.50907189 -1.24546405 -2.58919267 -0.7767578 0 0 Z " fill="#120C12" transform="translate(644,393)"/>
<path d="M0 0 C0.66 0.99 1.32 1.98 2 3 C0.94235118 7.46562837 -1.56364388 10.06652526 -5 13 C-5.99 13 -6.98 13 -8 13 C-8 13.99 -8 14.98 -8 16 C-9.65 16.66 -11.3 17.32 -13 18 C-8.96423199 11.74677704 -4.64562062 5.813898 0 0 Z " fill="#FA7701" transform="translate(592,312)"/>
<path d="M0 0 C2.62553026 3.93829539 3.20962865 7.11334219 2.6875 11.8125 C2.460625 12.534375 2.23375 13.25625 2 14 C1.01 14.495 1.01 14.495 0 15 C0 16.98 0 18.96 0 21 C-0.66 21 -1.32 21 -2 21 C-2 26.94 -2 32.88 -2 39 C-2.33 39 -2.66 39 -3 39 C-3.3801521 25.63835776 -2.49615603 13.1345353 0 0 Z " fill="#DE6F07" transform="translate(614,641)"/>
<path d="M0 0 C0.66 0.33 1.32 0.66 2 1 C-1.96339606 7.84586592 -8.42999973 16.1612499 -16 19 C-16.99 19 -17.98 19 -19 19 C-12.73 12.73 -6.46 6.46 0 0 Z " fill="#2D1812" transform="translate(653,453)"/>
<path d="M0 0 C0.6328125 1.8515625 0.6328125 1.8515625 1 4 C-1.125 6.375 -1.125 6.375 -4 9 C-4.82211919 10.09702339 -5.6347612 11.20121664 -6.4375 12.3125 C-9 15 -9 15 -12.3125 15.375 C-13.199375 15.25125 -14.08625 15.1275 -15 15 C-10 10 -5 5 0 0 Z " fill="#F17604" transform="translate(464,474)"/>
<path d="M0 0 C1.32 0.99 2.64 1.98 4 3 C-3.3697851 11.40346925 -3.3697851 11.40346925 -8 12 C-8.99 12 -9.98 12 -11 12 C-7.49102731 7.81576108 -3.91939465 3.80411834 0 0 Z " fill="#F77702" transform="translate(300,390)"/>
<path d="M0 0 C-1.61185508 4.16893381 -4.66191851 6.84983853 -7.875 9.8125 C-8.66970703 10.5849707 -8.66970703 10.5849707 -9.48046875 11.37304688 C-11.0546875 12.83203125 -11.0546875 12.83203125 -14 15 C-16.18408203 14.63549805 -16.18408203 14.63549805 -18 14 C-15.57390754 11.65455451 -13.1323556 9.32586814 -10.6875 7 C-9.99720703 6.33226562 -9.30691406 5.66453125 -8.59570312 4.9765625 C-7.92861328 4.34492187 -7.26152344 3.71328125 -6.57421875 3.0625 C-5.96151123 2.47597656 -5.34880371 1.88945313 -4.7175293 1.28515625 C-3 0 -3 0 0 0 Z " fill="#221313" transform="translate(447,538)"/>
<path d="M0 0 C0.33 0 0.66 0 1 0 C2.19932648 5.41838569 3.14301091 10.42257461 3 16 C3.33 16.33 3.66 16.66 4 17 C4.04080783 18.99958364 4.04254356 21.00045254 4 23 C4.99 23.33 5.98 23.66 7 24 C6.34 24.66 5.68 25.32 5 26 C1.55261028 21.88537357 -0.13592059 19.1648035 -0.09765625 13.76953125 C-0.09282227 12.56586914 -0.09282227 12.56586914 -0.08789062 11.33789062 C-0.07951172 10.50451172 -0.07113281 9.67113281 -0.0625 8.8125 C-0.05798828 7.96751953 -0.05347656 7.12253906 -0.04882812 6.25195312 C-0.03705403 4.16793845 -0.0191189 2.08396023 0 0 Z " fill="#1E1213" transform="translate(281,547)"/>
<path d="M0 0 C-1.37888209 3.97317055 -3.21563042 6.81606204 -5.875 10.0625 C-6.55304687 10.89910156 -7.23109375 11.73570312 -7.9296875 12.59765625 C-9.8640174 14.84220887 -11.87489846 16.93684088 -14 19 C-14 18.01 -14 17.02 -14 16 C-13.34 16 -12.68 16 -12 16 C-11.7834375 14.824375 -11.7834375 14.824375 -11.5625 13.625 C-11 11 -11 11 -10 9 C-9.34 9 -8.68 9 -8 9 C-8 8.01 -8 7.02 -8 6 C-7.34 5.67 -6.68 5.34 -6 5 C-5.67 4.01 -5.34 3.02 -5 2 C-2 0 -2 0 0 0 Z " fill="#211517" transform="translate(581,326)"/>
<path d="M0 0 C0.66 0.33 1.32 0.66 2 1 C1.5 3.25 1.5 3.25 0 6 C-1.97207462 7.1798373 -3.99099026 8.08628424 -6.08984375 9.01953125 C-8.46486425 10.2386113 -9.68339259 11.69593704 -11 14 C-12.32 13.67 -13.64 13.34 -15 13 C-13.43910974 11.58155991 -11.8762111 10.16532975 -10.3125 8.75 C-9.44238281 7.96109375 -8.57226562 7.1721875 -7.67578125 6.359375 C-5.17579137 4.15500436 -2.62054272 2.05866059 0 0 Z " fill="#EF7504" transform="translate(720,322)"/>
<path d="M0 0 C-3.63 3.96 -7.26 7.92 -11 12 C-11.66 11.01 -12.32 10.02 -13 9 C-11.4411666 5.17377257 -9.04566418 2.74852621 -6 0 C-3 -1 -3 -1 0 0 Z " fill="#E87106" transform="translate(547,353)"/>
<path d="M0 0 C0.66 0.33 1.32 0.66 2 1 C1.2036893 8.69767006 0.12178733 16.34352921 -1 24 C-1.33 24 -1.66 24 -2 24 C-3.20568053 19.32798795 -3.09382426 14.78503708 -3 10 C-2.34 10 -1.68 10 -1 10 C-1.020625 8.72125 -1.04125 7.4425 -1.0625 6.125 C-1.125 2.25 -1.125 2.25 0 0 Z " fill="#201613" transform="translate(613,636)"/>
<path d="M0 0 C0.9075 0.61875 1.815 1.2375 2.75 1.875 C5.14948817 3.44389611 7.40961612 4.80443821 10 6 C6.96474514 8.02350324 5.80573798 8.32124018 2.3125 8.625 C1.50425781 8.69976563 0.69601562 8.77453125 -0.13671875 8.8515625 C-1.05904297 8.92503906 -1.05904297 8.92503906 -2 9 C-2 7.68 -2 6.36 -2 5 C-1.01 5 -0.02 5 1 5 C0.67 3.35 0.34 1.7 0 0 Z " fill="#E67609" transform="translate(503,563)"/>
<path d="M0 0 C1 2 1 2 0.3515625 4.29296875 C-1.24049733 7.48168973 -3.19594589 9.70994203 -5.625 12.3125 C-6.44226563 13.19550781 -7.25953125 14.07851563 -8.1015625 14.98828125 C-9.04128906 15.98408203 -9.04128906 15.98408203 -10 17 C-10.33 16.01 -10.66 15.02 -11 14 C-10.10375977 12.37426758 -10.10375977 12.37426758 -8.69140625 10.64453125 C-7.94213867 9.71157227 -7.94213867 9.71157227 -7.17773438 8.75976562 C-6.64470703 8.11716797 -6.11167969 7.47457031 -5.5625 6.8125 C-5.03333984 6.15830078 -4.50417969 5.50410156 -3.95898438 4.83007812 C-2.64847072 3.21259731 -1.32539058 1.60531307 0 0 Z " fill="#EF7C04" transform="translate(520,410)"/>
<path d="M0 0 C1.94188761 6.36661722 -1.40315909 12.21612707 -4 18 C-4.99 18 -5.98 18 -7 18 C-6.35534798 13.66695924 -4.81074878 10.13327935 -2.9375 6.1875 C-2.11572266 4.44533203 -2.11572266 4.44533203 -1.27734375 2.66796875 C-0.85582031 1.78753906 -0.43429687 0.90710938 0 0 Z " fill="#E57506" transform="translate(651,542)"/>
<path d="M0 0 C0.66 0.33 1.32 0.66 2 1 C0.45614871 5.14032846 -1.51028938 8.93553053 -3.625 12.8125 C-3.94984375 13.40998047 -4.2746875 14.00746094 -4.609375 14.62304688 C-5.40379151 16.08337135 -6.20155376 17.54187491 -7 19 C-7.66 18.67 -8.32 18.34 -9 18 C-9 17.01 -9 16.02 -9 15 C-8.34 15 -7.68 15 -7 15 C-6.87625 14.4225 -6.7525 13.845 -6.625 13.25 C-5.99351176 10.97664233 -5.11141809 9.0746471 -4 7 C-3.34 7 -2.68 7 -2 7 C-2.33 6.01 -2.66 5.02 -3 4 C-1.5625 1.8125 -1.5625 1.8125 0 0 Z " fill="#EE7504" transform="translate(759,452)"/>
<path d="M0 0 C0.66 0.33 1.32 0.66 2 1 C0.62801857 5.00161251 -0.99362597 7.99362597 -4 11 C-7.25 11.8125 -7.25 11.8125 -10 12 C-9.61328125 11.55269531 -9.2265625 11.10539062 -8.828125 10.64453125 C-5.81609925 7.1478974 -2.85678969 3.62592537 0 0 Z " fill="#F07804" transform="translate(483,454)"/>
<path d="M0 0 C0.33 0 0.66 0 1 0 C1 3.3 1 6.6 1 10 C1.66 10.33 2.32 10.66 3 11 C1.25 18.75 1.25 18.75 -1 21 C-1.66 20.67 -2.32 20.34 -3 20 C-2.690625 18.741875 -2.38125 17.48375 -2.0625 16.1875 C-0.85947548 10.82934823 -0.38848904 5.4695168 0 0 Z " fill="#301A13" transform="translate(574,294)"/>
<path d="M0 0 C0.66 0.99 1.32 1.98 2 3 C1.34 3 0.68 3 0 3 C0.020625 3.94875 0.04125 4.8975 0.0625 5.875 C0 9 0 9 -1 11 C-1.99 11 -2.98 11 -4 11 C-4.144375 11.78375 -4.28875 12.5675 -4.4375 13.375 C-5 16 -5 16 -6 18 C-6.66 18 -7.32 18 -8 18 C-6.65150163 13.64029169 -4.95092154 9.68658562 -2.875 5.625 C-2.33617187 4.56539063 -1.79734375 3.50578125 -1.2421875 2.4140625 C-0.83226562 1.61742187 -0.42234375 0.82078125 0 0 Z " fill="#E07408" transform="translate(684,475)"/>
<path d="M0 0 C0 4.46153846 0 4.46153846 -1 7 C-4.16580205 10.07786311 -6.60618791 11.49785005 -11 12 C-7.49102731 7.81576108 -3.91939465 3.80411834 0 0 Z " fill="#EB7204" transform="translate(288,402)"/>
<path d="M0 0 C0.33 0.66 0.66 1.32 1 2 C0.07470849 4.03564133 -0.93988057 6.03120677 -2 8 C-2.474375 9.093125 -2.94875 10.18625 -3.4375 11.3125 C-5 14 -5 14 -7.1875 14.875 C-8.0846875 14.936875 -8.0846875 14.936875 -9 15 C-9 15.66 -9 16.32 -9 17 C-9.66 16.67 -10.32 16.34 -11 16 C-7.37 10.72 -3.74 5.44 0 0 Z " fill="#E97403" transform="translate(228,472)"/>
<path d="M0 0 C1.23922223 3.71766668 0.57018942 5.43889537 -0.4375 9.1875 C-0.72496094 10.27417969 -1.01242187 11.36085938 -1.30859375 12.48046875 C-1.65083984 13.72763672 -1.65083984 13.72763672 -2 15 C-2.66 14.01 -3.32 13.02 -4 12 C-4.99 11.67 -5.98 11.34 -7 11 C-5.22054913 6.95579349 -2.60470327 3.53921513 0 0 Z " fill="#351B12" transform="translate(573,421)"/>
<path d="M0 0 C0 3.79952223 -0.7271683 4.9458824 -3 8 C-9.79245283 14 -9.79245283 14 -14 14 C-9.38 9.38 -4.76 4.76 0 0 Z " fill="#281510" transform="translate(695,412)"/>
<path d="M0 0 C0 3.44360632 -0.79591532 4.74795392 -2.5 7.6875 C-2.9640625 8.49574219 -3.428125 9.30398438 -3.90625 10.13671875 C-4.2671875 10.75160156 -4.628125 11.36648438 -5 12 C-7.475 11.01 -7.475 11.01 -10 10 C-6.66666667 6.66666667 -3.33333333 3.33333333 0 0 Z " fill="#261711" transform="translate(739,371)"/>
<path d="M0 0 C0.33 0.99 0.66 1.98 1 3 C-0.109375 4.82421875 -0.109375 4.82421875 -1.75 6.6875 C-2.28109375 7.31011719 -2.8121875 7.93273437 -3.359375 8.57421875 C-5 10 -5 10 -8 10 C-8.99 9.34 -9.98 8.68 -11 8 C-7.37 5.36 -3.74 2.72 0 0 Z " fill="#EB7104" transform="translate(363,338)"/>
<path d="M0 0 C0.33 0.99 0.66 1.98 1 3 C0.00390625 4.75390625 0.00390625 4.75390625 -1.4375 6.5625 C-3.52365977 8.98756917 -3.52365977 8.98756917 -4 12 C-4.639375 12.28875 -5.27875 12.5775 -5.9375 12.875 C-8.15206079 13.82823451 -8.15206079 13.82823451 -9 16 C-9.66 16 -10.32 16 -11 16 C-9.32076975 12.19866558 -6.88537166 9.02917298 -4.375 5.75 C-3.95476563 5.19570313 -3.53453125 4.64140625 -3.1015625 4.0703125 C-2.07061281 2.71133337 -1.03570089 1.35536165 0 0 Z " fill="#E57305" transform="translate(532,394)"/>
<path d="M0 0 C0 0.33 0 0.66 0 1 C-0.91523437 1.04898437 -1.83046875 1.09796875 -2.7734375 1.1484375 C-3.96195313 1.22320312 -5.15046875 1.29796875 -6.375 1.375 C-8.15003906 1.47941406 -8.15003906 1.47941406 -9.9609375 1.5859375 C-13.10562319 1.70217346 -13.10562319 1.70217346 -15 4 C-16.625 3.6875 -16.625 3.6875 -19 3 C-21.66156983 2.61249175 -24.3280489 2.31172763 -27 2 C-27 1.67 -27 1.34 -27 1 C-17.98185679 -0.14516104 -9.0719352 -0.09471858 0 0 Z " fill="#C05E0B" transform="translate(539,268)"/>
<path d="M0 0 C0.99 0 1.98 0 3 0 C1.61735776 4.32443425 0.23327822 8.60320181 -1.625 12.75 C-2.81410482 15.56061138 -3.54523712 17.99856501 -4 21 C-4.33 21 -4.66 21 -5 21 C-5 18.36 -5 15.72 -5 13 C-4.34 13 -3.68 13 -3 13 C-2.87625 12.154375 -2.7525 11.30875 -2.625 10.4375 C-1.97229673 6.84763202 -1.04752537 3.49175125 0 0 Z " fill="#EC770B" transform="translate(632,686)"/>
<path d="M0 0 C0.99 0.33 1.98 0.66 3 1 C-3.15034169 8.48291572 -3.15034169 8.48291572 -7 11 C-6.67 8.36 -6.34 5.72 -6 3 C-4.35 3.33 -2.7 3.66 -1 4 C-0.67 2.68 -0.34 1.36 0 0 Z " fill="#EE7807" transform="translate(365,420)"/>
<path d="M0 0 C0.99 0 1.98 0 3 0 C2.39254603 4.85963179 0.27241033 8.7405518 -2 13 C-2.66 12.67 -3.32 12.34 -4 12 C-3.67 10.02 -3.34 8.04 -3 6 C-2.34 6 -1.68 6 -1 6 C-0.67 4.02 -0.34 2.04 0 0 Z " fill="#1D1517" transform="translate(647,544)"/>
<path d="M0 0 C0.66 0.99 1.32 1.98 2 3 C-0.97 5.97 -3.94 8.94 -7 12 C-7.66 11.67 -8.32 11.34 -9 11 C-9 10.34 -9 9.68 -9 9 C-8.34 8.67 -7.68 8.34 -7 8 C-7 7.34 -7 6.68 -7 6 C-6.01 5.67 -5.02 5.34 -4 5 C-3.67 4.01 -3.34 3.02 -3 2 C-2.01 1.34 -1.02 0.68 0 0 Z " fill="#E06B06" transform="translate(670,433)"/>
<path d="M0 0 C0.66 0.66 1.32 1.32 2 2 C0.85865673 4.00256574 -0.28818633 6.00199797 -1.4375 8 C-2.39462891 9.670625 -2.39462891 9.670625 -3.37109375 11.375 C-3.90863281 12.24125 -4.44617188 13.1075 -5 14 C-5.33 14 -5.66 14 -6 14 C-6 12.02 -6 10.04 -6 8 C-5.34 8 -4.68 8 -4 8 C-3.8453125 7.13375 -3.8453125 7.13375 -3.6875 6.25 C-2.90207202 3.67950842 -1.69495803 2.06342716 0 0 Z " fill="#EF7404" transform="translate(303,496)"/>
<path d="M0 0 C0.66 1.32 1.32 2.64 2 4 C0.98637869 7.04086393 -0.71875463 8.81793921 -3 11 C-3.33 11.66 -3.66 12.32 -4 13 C-4.99 12.67 -5.98 12.34 -7 12 C-4.69 8.04 -2.38 4.08 0 0 Z " fill="#EA7404" transform="translate(216,489)"/>
<path d="M0 0 C0.99 0.99 1.98 1.98 3 3 C2.3503125 3.5878125 2.3503125 3.5878125 1.6875 4.1875 C-0.26366224 6.28319278 -1.59010162 8.51589333 -3 11 C-3.99 10.67 -4.98 10.34 -6 10 C-4.34832443 6.4213696 -2.21713508 3.25179812 0 0 Z " fill="#EB7304" transform="translate(235,462)"/>
<path d="M0 0 C0.99 0.33 1.98 0.66 3 1 C2.04258894 2.60471728 1.08403595 4.20875329 0.125 5.8125 C-0.40867187 6.70582031 -0.94234375 7.59914063 -1.4921875 8.51953125 C-2.61883092 10.37294724 -3.79686611 12.19529917 -5 14 C-5.74737188 8.02102497 -3.3231898 4.67620279 0 0 Z " fill="#EB7205" transform="translate(777,420)"/>
<path d="M0 0 C0.33 0 0.66 0 1 0 C0.5188509 5.77378925 -1.18467181 9.95859836 -4 15 C-6 12 -6 12 -5.625 9.8125 C-5.41875 9.214375 -5.2125 8.61625 -5 8 C-4.34 8 -3.68 8 -3 8 C-2.690625 6.865625 -2.38125 5.73125 -2.0625 4.5625 C-1 1 -1 1 0 0 Z " fill="#1B1217" transform="translate(725,393)"/>
<path d="M0 0 C-3.80208727 3.30616284 -9.83581485 7 -15 7 C-15 6.01 -15 5.02 -15 4 C-13.35 4 -11.7 4 -10 4 C-10 3.34 -10 2.68 -10 2 C-6.5980513 -0.09350689 -3.94727588 -0.17942163 0 0 Z " fill="#F07A06" transform="translate(319,628)"/>
<path d="M0 0 C1.125 1.625 1.125 1.625 2 4 C1.125 7.25 1.125 7.25 0 10 C-0.66 10 -1.32 10 -2 10 C-2 10.99 -2 11.98 -2 13 C-2.99 13.33 -3.98 13.66 -5 14 C-4.54636829 12.41531323 -4.08688548 10.83230076 -3.625 9.25 C-3.36976563 8.36828125 -3.11453125 7.4865625 -2.8515625 6.578125 C-2.0790066 4.23919428 -1.16374324 2.16557438 0 0 Z " fill="#DE6C05" transform="translate(192,534)"/>
<path d="M0 0 C0.66 0.33 1.32 0.66 2 1 C0.23570801 5.97209562 -2.3939166 10.43438061 -5 15 C-6.29776668 11.10669996 -5.36104076 10.01013507 -3.625 6.375 C-3.16351562 5.39273437 -2.70203125 4.41046875 -2.2265625 3.3984375 C-1 1 -1 1 0 0 Z " fill="#F17605" transform="translate(742,482)"/>
<path d="M0 0 C0.33 0 0.66 0 1 0 C0.98839844 0.73605469 0.97679687 1.47210938 0.96484375 2.23046875 C0.95582031 3.20628906 0.94679688 4.18210937 0.9375 5.1875 C0.92589844 6.15042969 0.91429687 7.11335938 0.90234375 8.10546875 C0.91393953 10.99680385 0.91393953 10.99680385 1.59375 13.75 C1.7278125 14.4925 1.861875 15.235 2 16 C0.5625 17.8125 0.5625 17.8125 -1 19 C-2.00053923 14.39612021 -1.86574911 10.75549487 -1.0625 6.125 C-0.86785156 4.97257812 -0.67320312 3.82015625 -0.47265625 2.6328125 C-0.31667969 1.76398438 -0.16070313 0.89515625 0 0 Z " fill="#E97305" transform="translate(571,431)"/>
<path d="M0 0 C1.32 0.66 2.64 1.32 4 2 C1.69 5.3 -0.62 8.6 -3 12 C-3.66 11.34 -4.32 10.68 -5 10 C-3.35 6.7 -1.7 3.4 0 0 Z " fill="#1F1417" transform="translate(516,346)"/>
<path d="M0 0 C2.0859375 3.671875 2.0859375 3.671875 1.3125 6.625 C0 9 0 9 -3 11 C-4 8 -4 8 -3.22265625 5.95703125 C-2.83980469 5.24933594 -2.45695313 4.54164063 -2.0625 3.8125 C-1.68222656 3.09707031 -1.30195312 2.38164062 -0.91015625 1.64453125 C-0.60980469 1.10183594 -0.30945313 0.55914062 0 0 Z " fill="#E97203" transform="translate(669,505)"/>
<path d="M0 0 C2.33881007 2.12619097 3.94038762 3.99776492 5 7 C4.625 9.75 4.625 9.75 4 12 C3.67 11.34 3.34 10.68 3 10 C2.34 10 1.68 10 1 10 C1.33 8.35 1.66 6.7 2 5 C1.34 4.67 0.68 4.34 0 4 C0 2.68 0 1.36 0 0 Z " fill="#E47207" transform="translate(646,307)"/>
<path d="M0 0 C2.14699969 3.44175522 2.09856795 5.7720292 1.625 9.75 C1.51414062 10.73484375 1.40328125 11.7196875 1.2890625 12.734375 C1.19367188 13.48203125 1.09828125 14.2296875 1 15 C0.34 15 -0.32 15 -1 15 C-1.02715383 13.25008666 -1.04646551 11.50005055 -1.0625 9.75 C-1.07410156 8.77546875 -1.08570313 7.8009375 -1.09765625 6.796875 C-1.01195577 4.34241322 -0.70706066 2.33831086 0 0 Z " fill="#261712" transform="translate(503,545)"/>
<path d="M0 0 C1.32 0.66 2.64 1.32 4 2 C1.03 4.31 -1.94 6.62 -5 9 C-5.66 8.67 -6.32 8.34 -7 8 C-7 7.34 -7 6.68 -7 6 C-5.68 6 -4.36 6 -3 6 C-2.690625 5.195625 -2.38125 4.39125 -2.0625 3.5625 C-1 1 -1 1 0 0 Z " fill="#E87607" transform="translate(523,371)"/>
<path d="M0 0 C1.4943899 2.98877979 0.91874257 4.85002546 0 8 C-2.88941691 9.67282031 -4.6591357 10 -8 10 C-5.36 6.7 -2.72 3.4 0 0 Z " fill="#E47707" transform="translate(504,368)"/>
<path d="M0 0 C0.66 0 1.32 0 2 0 C1.40716379 3.39192363 0.23256811 5.2107757 -2.0625 7.75 C-2.61035156 8.36359375 -3.15820312 8.9771875 -3.72265625 9.609375 C-4.14417969 10.06828125 -4.56570313 10.5271875 -5 11 C-5.66 10.34 -6.32 9.68 -7 9 C-5.88266271 7.49428343 -4.75589965 5.99555708 -3.625 4.5 C-2.99851562 3.6646875 -2.37203125 2.829375 -1.7265625 1.96875 C-1.15679687 1.3190625 -0.58703125 0.669375 0 0 Z " fill="#1C1215" transform="translate(505,363)"/>
<path d="M0 0 C0.91330404 3.03050885 1.06558338 5.47968569 0.75 8.625 C0.68296875 9.40101563 0.6159375 10.17703125 0.546875 10.9765625 C0 13 0 13 -3 15 C-2.44854729 9.76119922 -1.57077907 5.02649303 0 0 Z " fill="#D96706" transform="translate(186,549)"/>
<path d="M0 0 C0.85851562 0.36931641 0.85851562 0.36931641 1.734375 0.74609375 C-1.54244143 3.50159847 -4.80736203 6.21890158 -8.265625 8.74609375 C-8.925625 8.41609375 -9.585625 8.08609375 -10.265625 7.74609375 C-9.03163437 6.37732259 -7.77781877 5.02640209 -6.515625 3.68359375 C-5.81953125 2.92949219 -5.1234375 2.17539062 -4.40625 1.3984375 C-2.265625 -0.25390625 -2.265625 -0.25390625 0 0 Z " fill="#211211" transform="translate(644.265625,464.25390625)"/>
<path d="M0 0 C1.65 0 3.3 0 5 0 C3.15182241 2.77226639 2.03011599 3.86825386 -0.625 5.6875 C-1.25664063 6.12449219 -1.88828125 6.56148438 -2.5390625 7.01171875 C-3.02117188 7.33785156 -3.50328125 7.66398437 -4 8 C-4.33 6.68 -4.66 5.36 -5 4 C-3.35 3.34 -1.7 2.68 0 2 C0 1.34 0 0.68 0 0 Z " fill="#D46808" transform="translate(737,369)"/>
<path d="M0 0 C0 0.66 0 1.32 0 2 C-0.66 2 -1.32 2 -2 2 C-2.33 3.32 -2.66 4.64 -3 6 C-4.98 6 -6.96 6 -9 6 C-8 3 -8 3 -5.0625 1.3125 C-2 0 -2 0 0 0 Z " fill="#E87505" transform="translate(802,266)"/>
<path d="M0 0 C0.99 0.33 1.98 0.66 3 1 C0.0094833 4.33557632 -2.93184627 6.15083921 -7 8 C-7.33 7.01 -7.66 6.02 -8 5 C-3.375 2 -3.375 2 0 2 C0 1.34 0 0.68 0 0 Z " fill="#221414" transform="translate(400,525)"/>
<path d="M0 0 C1 3 1 3 0 7 C-2.97 7.66 -5.94 8.32 -9 9 C-6 6 -3 3 0 0 Z " fill="#F07805" transform="translate(448,489)"/>
<path d="M0 0 C0.33 0.66 0.66 1.32 1 2 C1.66 2.33 2.32 2.66 3 3 C-1.5 7.875 -1.5 7.875 -6 9 C-4.02 6.03 -2.04 3.06 0 0 Z " fill="#EE7403" transform="translate(541,382)"/>
<path d="M0 0 C1.65 0 3.3 0 5 0 C4.06725891 1.12894876 3.12859878 2.25300876 2.1875 3.375 C1.66542969 4.00148438 1.14335938 4.62796875 0.60546875 5.2734375 C-1 7 -1 7 -4 9 C-4 7.68 -4 6.36 -4 5 C-3.01 4.34 -2.02 3.68 -1 3 C-0.67 2.01 -0.34 1.02 0 0 Z " fill="#EF7605" transform="translate(728,376)"/>
<path d="M0 0 C0.66 0.66 1.32 1.32 2 2 C1.1875 3.9375 1.1875 3.9375 0 6 C-0.99 6.33 -1.98 6.66 -3 7 C-3 7.99 -3 8.98 -3 10 C-4.65 10.66 -6.3 11.32 -8 12 C-4 6 -4 6 0 0 Z " fill="#E26D06" transform="translate(587,318)"/>
<path d="M0 0 C0.33 0.66 0.66 1.32 1 2 C0.04882866 3.1725131 -0.91117009 4.33787015 -1.875 5.5 C-2.40867187 6.1496875 -2.94234375 6.799375 -3.4921875 7.46875 C-3.98976563 7.9740625 -4.48734375 8.479375 -5 9 C-5.66 9 -6.32 9 -7 9 C-6.34 7.02 -5.68 5.04 -5 3 C-4.01 3 -3.02 3 -2 3 C-2 2.34 -2 1.68 -2 1 C-1.34 0.67 -0.68 0.34 0 0 Z " fill="#F07B04" transform="translate(680,490)"/>
<path d="M0 0 C0.66 0.33 1.32 0.66 2 1 C0.68938409 5.23429756 -0.94356259 9.07407404 -3 13 C-3.66 12.67 -4.32 12.34 -5 12 C-5 11.34 -5 10.68 -5 10 C-4.34 10 -3.68 10 -3 10 C-2.87625 9.0925 -2.7525 8.185 -2.625 7.25 C-2.07890323 4.41029677 -1.42736197 2.47409409 0 0 Z " fill="#1B1114" transform="translate(693,453)"/>
<path d="M0 0 C0.66 0.33 1.32 0.66 2 1 C2 1.66 2 2.32 2 3 C0.52304509 4.28430862 -0.95806138 5.56580708 -2.4921875 6.78125 C-4.13813095 8.06784671 -4.13813095 8.06784671 -6 10 C-6.33 8.68 -6.66 7.36 -7 6 C-4.69 4.02 -2.38 2.04 0 0 Z " fill="#1E1212" transform="translate(421,374)"/>
<path d="M0 0 C0.99 0.33 1.98 0.66 3 1 C1.35 4.3 -0.3 7.6 -2 11 C-2.33 10.34 -2.66 9.68 -3 9 C-3.66 9 -4.32 9 -5 9 C-5 8.34 -5 7.68 -5 7 C-3.68 6.67 -2.36 6.34 -1 6 C-0.67 4.02 -0.34 2.04 0 0 Z " fill="#EE7406" transform="translate(733,497)"/>
<path d="M0 0 C0 0.66 0 1.32 0 2 C1.65 2.33 3.3 2.66 5 3 C5 3.33 5 3.66 5 4 C3.741875 4.020625 2.48375 4.04125 1.1875 4.0625 C0.47980469 4.07410156 -0.22789062 4.08570313 -0.95703125 4.09765625 C-3 4 -3 4 -6 3 C-6 2.34 -6 1.68 -6 1 C-3 0 -3 0 0 0 Z " fill="#CD6D07" transform="translate(593,495)"/>
<path d="M0 0 C0.66 0.33 1.32 0.66 2 1 C0.95285076 2.32477959 -0.11344669 3.63443746 -1.1875 4.9375 C-1.77917969 5.66839844 -2.37085938 6.39929688 -2.98046875 7.15234375 C-5.32505203 9.29738803 -6.88391498 9.66094412 -10 10 C-6.66666667 6.66666667 -3.33333333 3.33333333 0 0 Z " fill="#2D1812" transform="translate(622,483)"/>
<path d="M0 0 C0.33 0.99 0.66 1.98 1 3 C1.66 3 2.32 3 3 3 C3 3.66 3 4.32 3 5 C2.01 5.33 1.02 5.66 0 6 C-0.70491267 8.32206525 -1.37212429 10.65593068 -2 13 C-2.99 13.495 -2.99 13.495 -4 14 C-3.52372025 12.04096255 -3.04388577 10.08278903 -2.5625 8.125 C-2.29566406 7.03445313 -2.02882813 5.94390625 -1.75390625 4.8203125 C-1 2 -1 2 0 0 Z " fill="#45210D" transform="translate(631,395)"/>
<path d="M0 0 C0.66 0.33 1.32 0.66 2 1 C1.4375 3.375 1.4375 3.375 0 6 C-3.625 7.3125 -3.625 7.3125 -7 8 C-6.02133662 6.85373678 -5.04205413 5.70800212 -4.0625 4.5625 C-3.51722656 3.92441406 -2.97195313 3.28632813 -2.41015625 2.62890625 C-1.63204305 1.73008851 -0.84063472 0.84063472 0 0 Z " fill="#E26C03" transform="translate(300,390)"/>
<path d="M0 0 C1.65 0 3.3 0 5 0 C2.42215154 2.64752004 0.08351902 4.94432065 -3 7 C-3.33 6.01 -3.66 5.02 -4 4 C-3.34 4 -2.68 4 -2 4 C-1.34 2.68 -0.68 1.36 0 0 Z " fill="#EB7203" transform="translate(719,385)"/>
<path d="M0 0 C0.66 1.32 1.32 2.64 2 4 C-0.35968744 6.09749995 -1.54616994 6.96905704 -4.75 7.1875 C-5.86375 7.0946875 -5.86375 7.0946875 -7 7 C-4.66666667 4.66666667 -2.33333333 2.33333333 0 0 Z " fill="#F17301" transform="translate(318,374)"/>
<path d="M0 0 C0.59296875 0.22558594 1.1859375 0.45117188 1.796875 0.68359375 C0.70403923 1.71654811 -0.40283079 2.7346721 -1.515625 3.74609375 C-2.13050781 4.31457031 -2.74539063 4.88304687 -3.37890625 5.46875 C-3.98089844 5.86964844 -4.58289063 6.27054687 -5.203125 6.68359375 C-6.193125 6.35359375 -7.183125 6.02359375 -8.203125 5.68359375 C-7.30284912 4.64827649 -6.38219465 3.6306521 -5.453125 2.62109375 C-4.68742188 1.76837891 -4.68742188 1.76837891 -3.90625 0.8984375 C-2.203125 -0.31640625 -2.203125 -0.31640625 0 0 Z " fill="#ED7704" transform="translate(702.203125,339.31640625)"/>
<path d="M0 0 C1.11375 0.598125 2.2275 1.19625 3.375 1.8125 C4.00148438 2.14894531 4.62796875 2.48539062 5.2734375 2.83203125 C7 4 7 4 9 7 C3.49411765 6.51058824 3.49411765 6.51058824 1.125 4.0625 C0 2 0 2 0 0 Z " fill="#EF7608" transform="translate(559,274)"/>
<path d="M0 0 C3.3 1.98 6.6 3.96 10 6 C9.01 7.485 9.01 7.485 8 9 C6.66079162 7.88200014 5.32877444 6.75538103 4 5.625 C2.88625 4.68527344 2.88625 4.68527344 1.75 3.7265625 C1.1725 3.15679688 0.595 2.58703125 0 2 C0 1.34 0 0.68 0 0 Z " fill="#F18107" transform="translate(197,628)"/>
<path d="M0 0 C1.31223496 3.93670488 0.24296256 6.12488144 -1 10 C-1.33 9.01 -1.66 8.02 -2 7 C-3.32 6.67 -4.64 6.34 -6 6 C-4.02 4.02 -2.04 2.04 0 0 Z " fill="#3C210F" transform="translate(457,526)"/>
<path d="M0 0 C0 0.66 0 1.32 0 2 C-0.66 2 -1.32 2 -2 2 C-2.33 2.99 -2.66 3.98 -3 5 C-5.0625 6.6875 -5.0625 6.6875 -7 8 C-7.99 7.34 -8.98 6.68 -10 6 C-8.71283353 4.99421411 -7.42011342 3.99553202 -6.125 3 C-5.40570313 2.443125 -4.68640625 1.88625 -3.9453125 1.3125 C-2 0 -2 0 0 0 Z " fill="#EC7304" transform="translate(414,519)"/>
<path d="M0 0 C1.32 0.66 2.64 1.32 4 2 C2.35 4.64 0.7 7.28 -1 10 C-1.66 9.01 -2.32 8.02 -3 7 C-2.01 6.67 -1.02 6.34 0 6 C0 4.02 0 2.04 0 0 Z " fill="#EF7806" transform="translate(560,328)"/>
<path d="M0 0 C2.5625 2.1875 2.5625 2.1875 5 5 C4.8125 7.8125 4.8125 7.8125 4 10 C3.34 10 2.68 10 2 10 C1.34 6.7 0.68 3.4 0 0 Z " fill="#F07505" transform="translate(841,263)"/>
<path d="M0 0 C0.66 0.99 1.32 1.98 2 3 C0.35 6.3 -1.3 9.6 -3 13 C-4.08644535 8.6542186 -3.90680911 8.05039452 -2.0625 4.25 C-1.68222656 3.45078125 -1.30195312 2.6515625 -0.91015625 1.828125 C-0.60980469 1.22484375 -0.30945313 0.6215625 0 0 Z " fill="#F17809" transform="translate(652,645)"/>
<path d="M0 0 C-3.96 3.465 -3.96 3.465 -8 7 C-8.66 6.34 -9.32 5.68 -10 5 C-9.34 5 -8.68 5 -8 5 C-8 4.01 -8 3.02 -8 2 C-4.90310319 -1.09689681 -4.48560889 -1.12140222 0 0 Z " fill="#EE7606" transform="translate(625,482)"/>
<path d="M0 0 C0.66 0.66 1.32 1.32 2 2 C-0.97 6.95 -0.97 6.95 -4 12 C-4.33 10.68 -4.66 9.36 -5 8 C-4.34 8 -3.68 8 -3 8 C-2.87625 7.236875 -2.7525 6.47375 -2.625 5.6875 C-2 3 -2 3 0 0 Z " fill="#EE7205" transform="translate(541,464)"/>
<path d="M0 0 C0.66 0.99 1.32 1.98 2 3 C0.8125 5 0.8125 5 -1 7 C-3.6875 7.25 -3.6875 7.25 -6 7 C-4.02 4.69 -2.04 2.38 0 0 Z " fill="#EF7202" transform="translate(269,422)"/>
<path d="M0 0 C0.66 0.33 1.32 0.66 2 1 C1.62403791 3.78211944 1.32681541 5.5879284 -0.4375 7.8125 C-2 9 -2 9 -4 9 C-2.80100302 5.9168649 -1.52299523 2.93720508 0 0 Z " fill="#EE7605" transform="translate(736,378)"/>
<path d="M0 0 C0.66 0.33 1.32 0.66 2 1 C0.68775452 4.93673644 -0.91910327 7.22719294 -4 10 C-4 5.28093812 -2.71245796 3.72962969 0 0 Z " fill="#231516" transform="translate(563,347)"/>
<path d="M0 0 C0.99 0 1.98 0 3 0 C1.7508258 3.45925163 0.32472205 6.14693203 -2 9 C-2.6875 7.3125 -2.6875 7.3125 -3 5 C-1.75 2.25 -1.75 2.25 0 0 Z " fill="#231516" transform="translate(522,338)"/>
<path d="M0 0 C-3.19990508 2.74277578 -6.00499382 4.6302836 -10 6 C-9.875 4.1875 -9.875 4.1875 -9 2 C-3.81203008 -1.27067669 -3.81203008 -1.27067669 0 0 Z " fill="#ED7506" transform="translate(352,610)"/>
<path d="M0 0 C-1 2 -1 2 -4.25 3.1875 C-7.77209175 3.95061988 -9.61680501 4.0252106 -13 3 C-13 2.67 -13 2.34 -13 2 C-8.46298506 0.54815522 -4.81938524 -0.23509196 0 0 Z " fill="#E67907" transform="translate(320,573)"/>
<path d="M0 0 C0.33 0.99 0.66 1.98 1 3 C-1.31 3.66 -3.62 4.32 -6 5 C-6.99 4.01 -7.98 3.02 -9 2 C-6.03 1.34 -3.06 0.68 0 0 Z " fill="#1E1314" transform="translate(510,570)"/>
<path d="M0 0 C0.66 0.33 1.32 0.66 2 1 C0.84414715 4.91211733 -0.35534962 7.8745041 -3 11 C-3.33 10.34 -3.66 9.68 -4 9 C-3.22265625 6.8359375 -3.22265625 6.8359375 -2.0625 4.375 C-1.68222656 3.55773437 -1.30195313 2.74046875 -0.91015625 1.8984375 C-0.60980469 1.27195312 -0.30945313 0.64546875 0 0 Z " fill="#1B1316" transform="translate(196,520)"/>
<path d="M0 0 C1 2 1 2 0.22265625 4.3828125 C-0.16019531 5.28773438 -0.54304687 6.19265625 -0.9375 7.125 C-1.31777344 8.03507812 -1.69804688 8.94515625 -2.08984375 9.8828125 C-2.39019531 10.58148438 -2.69054687 11.28015625 -3 12 C-4.1700097 8.08263419 -3.69584017 5.02040985 -3 1 C-2.01 0.67 -1.02 0.34 0 0 Z " fill="#E17007" transform="translate(635,383)"/>
<path d="M0 0 C0.66 0 1.32 0 2 0 C1.58578031 4.83256305 -0.46413986 6.82679218 -4 10 C-4.66 9.34 -5.32 8.68 -6 8 C-4.68 7.67 -3.36 7.34 -2 7 C-2 6.01 -2 5.02 -2 4 C-1.34 4 -0.68 4 0 4 C0 2.68 0 1.36 0 0 Z " fill="#211417" transform="translate(535,385)"/>
<path d="M0 0 C0.66 0.66 1.32 1.32 2 2 C-0.97 4.475 -0.97 4.475 -4 7 C-4.99 6.34 -5.98 5.68 -7 5 C-4.69 3.35 -2.38 1.7 0 0 Z " fill="#201314" transform="translate(435,364)"/>
<path d="M0 0 C0.66 0 1.32 0 2 0 C0.76210371 3.71368887 -0.85224877 4.77354181 -4 7 C-4.66 7 -5.32 7 -6 7 C-6.33 5.68 -6.66 4.36 -7 3 C-3.535 2.505 -3.535 2.505 0 2 C0 1.34 0 0.68 0 0 Z " fill="#EF7B06" transform="translate(430,365)"/>
<path d="M0 0 C0.33 0.99 0.66 1.98 1 3 C0.00390625 4.82421875 0.00390625 4.82421875 -1.4375 6.6875 C-1.91058594 7.31011719 -2.38367188 7.93273437 -2.87109375 8.57421875 C-3.24363281 9.04472656 -3.61617187 9.51523437 -4 10 C-4.65234375 8.203125 -4.65234375 8.203125 -5 6 C-3.63510623 3.66629928 -1.8580962 1.99405446 0 0 Z " fill="#1F1215" transform="translate(553,362)"/>
<path d="M0 0 C0 3 0 3 -1.42578125 4.640625 C-2.04839844 5.17171875 -2.67101562 5.7028125 -3.3125 6.25 C-4.23482422 7.06210937 -4.23482422 7.06210937 -5.17578125 7.890625 C-5.77777344 8.25671875 -6.37976563 8.6228125 -7 9 C-7.99 8.67 -8.98 8.34 -10 8 C-6.7 5.36 -3.4 2.72 0 0 Z " fill="#EF7502" transform="translate(336,359)"/>
<path d="M0 0 C1.32 0.33 2.64 0.66 4 1 C1.51047079 3.66735273 -0.63408134 5.55746343 -4 7 C-4 5.68 -4 4.36 -4 3 C-2.68 2.67 -1.36 2.34 0 2 C0 1.34 0 0.68 0 0 Z " fill="#1F1315" transform="translate(372,328)"/>
<path d="M0 0 C2.02350324 3.03525486 2.32124018 4.19426202 2.625 7.6875 C2.69976563 8.49574219 2.77453125 9.30398438 2.8515625 10.13671875 C2.90054688 10.75160156 2.94953125 11.36648438 3 12 C2.34 12 1.68 12 1 12 C0.63597631 10.56496445 0.28413409 9.12683494 -0.0625 7.6875 C-0.25972656 6.88699219 -0.45695313 6.08648438 -0.66015625 5.26171875 C-1 3 -1 3 0 0 Z " fill="#221713" transform="translate(612,686)"/>
<path d="M0 0 C1.37432457 3.81756824 0.67975039 7.07255329 0 11 C-0.99 11 -1.98 11 -3 11 C-2.32829194 7.1936543 -1.27253436 3.64793184 0 0 Z " fill="#DD6F06" transform="translate(627,598)"/>
<path d="M0 0 C0.66 1.32 1.32 2.64 2 4 C0.625 7.75 0.625 7.75 -1 11 C-1.66 10.67 -2.32 10.34 -3 10 C-2.01 6.7 -1.02 3.4 0 0 Z " fill="#1A1315" transform="translate(632,579)"/>
<path d="M0 0 C0 1.66666667 0 3.33333333 0 5 C-1.98 5.33 -3.96 5.66 -6 6 C-6 5.01 -6 4.02 -6 3 C-4.02 2.01 -2.04 1.02 0 0 Z " fill="#EE7603" transform="translate(370,548)"/>
<path d="M0 0 C0.66 0 1.32 0 2 0 C1.5020163 3.73487777 1.12508244 5.81237635 -1 9 C-1.66 9 -2.32 9 -3 9 C-2.01 6.03 -1.02 3.06 0 0 Z " fill="#251512" transform="translate(511,523)"/>
<path d="M0 0 C1.32 0.33 2.64 0.66 4 1 C1.69 3.31 -0.62 5.62 -3 8 C-3.33 7.01 -3.66 6.02 -4 5 C-3.34 5 -2.68 5 -2 5 C-1.34 3.35 -0.68 1.7 0 0 Z " fill="#DF6E06" transform="translate(676,427)"/>
<path d="M0 0 C1.65 0.33 3.3 0.66 5 1 C2.14693203 3.32472205 -0.54074837 4.7508258 -4 6 C-4.33 5.34 -4.66 4.68 -5 4 C-3.35 3.67 -1.7 3.34 0 3 C0 2.01 0 1.02 0 0 Z " fill="#E97204" transform="translate(468,339)"/>
<path d="M0 0 C0.66 0.33 1.32 0.66 2 1 C0.55746343 4.36591866 -1.33264727 6.51047079 -4 9 C-4.33 8.01 -4.66 7.02 -5 6 C-4.34 6 -3.68 6 -3 6 C-2.690625 5.38125 -2.38125 4.7625 -2.0625 4.125 C-1.375 2.75 -0.6875 1.375 0 0 Z " fill="#EE7406" transform="translate(556,337)"/>
<path d="M0 0 C-1 1.5 -1 1.5 -3 3 C-5.71846235 3.27345479 -8.25677199 3.13491285 -11 3 C-7.68381684 -0.31618316 -4.50821267 -1.6697084 0 0 Z " fill="#301814" transform="translate(508,326)"/>
<path d="M0 0 C0 0.99 0 1.98 0 3 C-6.625 3.25 -6.625 3.25 -10 1 C-6.59437148 0.22157062 -3.49234244 -0.09978121 0 0 Z " fill="#EE7906" transform="translate(512,270)"/>
<path d="M0 0 C0 3 0 3 -1.1875 4.6875 C-3.55741722 6.40364695 -5.14025666 6.23187108 -8 6 C-5.51047079 3.33264727 -3.36591866 1.44253657 0 0 Z " fill="#261512" transform="translate(363,603)"/>
<path d="M0 0 C0 0.66 0 1.32 0 2 C-3.71973879 4.84450614 -6.37390802 5.3227506 -11 5 C-8.12934225 2.12934225 -4.13678472 0 0 0 Z " fill="#E77505" transform="translate(344,563)"/>
<path d="M0 0 C0 0.99 0 1.98 0 3 C-0.639375 3.268125 -1.27875 3.53625 -1.9375 3.8125 C-4.33131686 4.88667752 -4.33131686 4.88667752 -5 8 C-5.99 7.34 -6.98 6.68 -8 6 C-5.36 4.02 -2.72 2.04 0 0 Z " fill="#221211" transform="translate(419,561)"/>
<path d="M0 0 C0.33 0.66 0.66 1.32 1 2 C0.67 2.99 0.34 3.98 0 5 C-2.64 5.33 -5.28 5.66 -8 6 C-5.63379989 3.38472619 -3.057952 1.73559438 0 0 Z " fill="#EC7907" transform="translate(384,539)"/>
<path d="M0 0 C1.32 0 2.64 0 4 0 C2.60667426 3.36720387 1.0210714 4.9859524 -2 7 C-2.66 6.34 -3.32 5.68 -4 5 C-2.68 4.67 -1.36 4.34 0 4 C0 2.68 0 1.36 0 0 Z " fill="#DA6C07" transform="translate(656,446)"/>
<path d="M0 0 C0.99 0.33 1.98 0.66 3 1 C1.25 6.75 1.25 6.75 -1 9 C-1.09765625 2.84765625 -1.09765625 2.84765625 -1 1 C-0.67 0.67 -0.34 0.34 0 0 Z " fill="#EE7706" transform="translate(809,359)"/>
<path d="M0 0 C-2.97 2.475 -2.97 2.475 -6 5 C-6.66 4.34 -7.32 3.68 -8 3 C-5.45189726 -0.82215411 -4.39145359 -1.46381786 0 0 Z " fill="#F37603" transform="translate(547,353)"/>
<path d="M0 0 C0.99 0 1.98 0 3 0 C2.3125 2.375 2.3125 2.375 1 5 C-1.625 6.3125 -1.625 6.3125 -4 7 C-2.68 4.69 -1.36 2.38 0 0 Z " fill="#ED7E04" transform="translate(516,352)"/>
<path d="M0 0 C1 4 1 4 0.0625 6.25 C-0.4634375 7.11625 -0.4634375 7.11625 -1 8 C-2.32 7.67 -3.64 7.34 -5 7 C-3.35 4.69 -1.7 2.38 0 0 Z " fill="#EA7906" transform="translate(574,336)"/>
<path d="M0 0 C5.28 0.33 10.56 0.66 16 1 C16 1.33 16 1.66 16 2 C8.08 2.495 8.08 2.495 0 3 C0 2.01 0 1.02 0 0 Z " fill="#BD5F0B" transform="translate(512,320)"/>
<path d="M0 0 C0.66 0.33 1.32 0.66 2 1 C1.67 2.32 1.34 3.64 1 5 C-0.32 5 -1.64 5 -3 5 C-3 3.68 -3 2.36 -3 1 C-2.01 0.67 -1.02 0.34 0 0 Z " fill="#F17B06" transform="translate(504,567)"/>
<path d="M0 0 C0.66 0.33 1.32 0.66 2 1 C1.34 3.97 0.68 6.94 0 10 C-2 7 -2 7 -1.6875 4.4375 C-1 2 -1 2 0 0 Z " fill="#E16D05" transform="translate(285,529)"/>
<path d="M0 0 C1.32 0 2.64 0 4 0 C3.43628586 3.26954202 2.50037734 4.82575883 0 7 C0 4.69 0 2.38 0 0 Z " fill="#ED7603" transform="translate(560,432)"/>
<path d="M0 0 C0.33 0.66 0.66 1.32 1 2 C0.22265625 3.7265625 0.22265625 3.7265625 -0.9375 5.625 C-1.618125 6.73875 -2.29875 7.8525 -3 9 C-4.32 8.67 -5.64 8.34 -7 8 C-4.69 5.36 -2.38 2.72 0 0 Z " fill="#DF7306" transform="translate(488,387)"/>
<path d="M0 0 C0 3.12900213 -0.42451317 4.37418862 -2 7 C-2.99 7.495 -2.99 7.495 -4 8 C-4.66 7.34 -5.32 6.68 -6 6 C-4.02 4.02 -2.04 2.04 0 0 Z " fill="#2D1712" transform="translate(720,388)"/>
<path d="M0 0 C0.33 0 0.66 0 1 0 C1.3125 2.3125 1.3125 2.3125 1 5 C-1.375 6.875 -1.375 6.875 -4 8 C-4.66 7.67 -5.32 7.34 -6 7 C-5.02433888 5.83040013 -4.044375 4.66438823 -3.0625 3.5 C-2.51722656 2.8503125 -1.97195313 2.200625 -1.41015625 1.53125 C-0.71212891 0.77328125 -0.71212891 0.77328125 0 0 Z " fill="#E07206" transform="translate(495,379)"/>
<path d="M0 0 C0.928125 0.20625 1.85625 0.4125 2.8125 0.625 C0.34971199 3.08778801 -1.89426982 3.62271255 -5.1875 4.625 C-5.5175 3.635 -5.8475 2.645 -6.1875 1.625 C-3.1875 -0.375 -3.1875 -0.375 0 0 Z " fill="#F07905" transform="translate(494.1875,327.375)"/>
<path d="M0 0 C0 3 0 3 -1.1875 4.6875 C-3.55741722 6.40364695 -5.14025666 6.23187108 -8 6 C-5.38485683 3.87961365 -2.80362384 1.86908256 0 0 Z " fill="#EB7804" transform="translate(387,322)"/>
<path d="M0 0 C1.32 0 2.64 0 4 0 C4.99 1.98 5.98 3.96 7 6 C6.34 6.66 5.68 7.32 5 8 C1.125 2.25 1.125 2.25 0 0 Z " fill="#221310" transform="translate(644,304)"/>
<path d="M0 0 C0.66 0.99 1.32 1.98 2 3 C0.625 6.6875 0.625 6.6875 -1 10 C-1.66 10 -2.32 10 -3 10 C-2.01 6.7 -1.02 3.4 0 0 Z " fill="#2A1611" transform="translate(840,300)"/>
<path d="M0 0 C-0.33 0.99 -0.66 1.98 -1 3 C-1.99 3 -2.98 3 -4 3 C-4.33 3.99 -4.66 4.98 -5 6 C-6.65 6.33 -8.3 6.66 -10 7 C-3.18421053 0 -3.18421053 0 0 0 Z " fill="#E67105" transform="translate(755,296)"/>
<path d="M0 0 C0.33 0.99 0.66 1.98 1 3 C-0.32 4.32 -1.64 5.64 -3 7 C-5 6 -5 6 -6 4 C-4.02 2.68 -2.04 1.36 0 0 Z " fill="#F17704" transform="translate(763,289)"/>
<path d="M0 0 C0.66 0 1.32 0 2 0 C1.67 1.65 1.34 3.3 1 5 C0.34 5 -0.32 5 -1 5 C-1.33 6.98 -1.66 8.96 -2 11 C-2.95465783 8.83032311 -3.14401212 7.43671207 -2.3984375 5.17578125 C-1.64129615 3.4315257 -0.82390802 1.71372869 0 0 Z " fill="#3A1D0F" transform="translate(285,536)"/>
<path d="M0 0 C0.33 0 0.66 0 1 0 C1 1.65 1 3.3 1 5 C0.34 5 -0.32 5 -1 5 C-1.33 6.32 -1.66 7.64 -2 9 C-2.66 9 -3.32 9 -4 9 C-2.94124926 5.59687262 -1.99097846 2.98646769 0 0 Z " fill="#E77406" transform="translate(728,393)"/>
<path d="M0 0 C0.66 0.66 1.32 1.32 2 2 C0.02579865 4.52259061 -0.96745642 4.9929808 -4.1875 5.6875 C-5.5796875 5.8421875 -5.5796875 5.8421875 -7 6 C-4.74259377 3.66475218 -2.7194239 1.81294927 0 0 Z " fill="#281714" transform="translate(507,388)"/>
<path d="M0 0 C1.32 0 2.64 0 4 0 C2.84414715 3.91211733 1.64465038 6.8745041 -1 10 C-1 8.35 -1 6.7 -1 5 C-0.34 5 0.32 5 1 5 C0.67 3.35 0.34 1.7 0 0 Z " fill="#ED7306" transform="translate(824,328)"/>
<path d="M0 0 C0.66 0.33 1.32 0.66 2 1 C0.35 2.98 -1.3 4.96 -3 7 C-3.99 6.34 -4.98 5.68 -6 5 C-4.02 3.35 -2.04 1.7 0 0 Z " fill="#E86F03" transform="translate(732,312)"/>
<path d="M0 0 C0.33 0.66 0.66 1.32 1 2 C1.66 2 2.32 2 3 2 C2.1875 3.9375 2.1875 3.9375 1 6 C0.01 6.33 -0.98 6.66 -2 7 C-1.34 4.69 -0.68 2.38 0 0 Z " fill="#261713" transform="translate(636,683)"/>
<path d="M0 0 C0.91058531 3.07322544 1.08886184 5.80097361 1 9 C0.01 9.33 -0.98 9.66 -2 10 C-1.54177532 6.53058454 -1.10868317 3.32604951 0 0 Z " fill="#D86B07" transform="translate(619,622)"/>
<path d="M0 0 C0.66 0.33 1.32 0.66 2 1 C0.66666667 3.66666667 -0.66666667 6.33333333 -2 9 C-2.66 9 -3.32 9 -4 9 C-2.80100302 5.9168649 -1.52299523 2.93720508 0 0 Z " fill="#E97105" transform="translate(699,447)"/>
<path d="M0 0 C0.99 0 1.98 0 3 0 C1.7508258 3.45925163 0.32472205 6.14693203 -2 9 C-2 7.35 -2 5.7 -2 4 C-1.01 3.67 -0.02 3.34 1 3 C0.67 2.01 0.34 1.02 0 0 Z " fill="#F27B05" transform="translate(551,447)"/>
<path d="M0 0 C0.66 0 1.32 0 2 0 C3.15837626 4.05431692 2.83691257 6.21812119 1 10 C0.34 10 -0.32 10 -1 10 C-0.67 6.7 -0.34 3.4 0 0 Z " fill="#EE7806" transform="translate(573,420)"/>
<path d="M0 0 C0.66 0 1.32 0 2 0 C1.38461538 5.53846154 1.38461538 5.53846154 -0.5625 7.875 C-1.036875 8.24625 -1.51125 8.6175 -2 9 C-1.41196203 5.97580475 -0.77321882 2.98241547 0 0 Z " fill="#211316" transform="translate(713,415)"/>
<path d="M0 0 C1.4540625 0.0309375 1.4540625 0.0309375 2.9375 0.0625 C1.2875 1.7125 -0.3625 3.3625 -2.0625 5.0625 C-2.7225 3.7425 -3.3825 2.4225 -4.0625 1.0625 C-3.0625 0.0625 -3.0625 0.0625 0 0 Z " fill="#EC7905" transform="translate(379.0625,407.9375)"/>
<path d="M0 0 C0.33 0.99 0.66 1.98 1 3 C-0.9375 5.6875 -0.9375 5.6875 -3 8 C-3.99 7.67 -4.98 7.34 -6 7 C-4.02 4.69 -2.04 2.38 0 0 Z " fill="#201111" transform="translate(542,357)"/>
<path d="M0 0 C0.66 0.66 1.32 1.32 2 2 C1.01 4.31 0.02 6.62 -1 9 C-1.66 8.67 -2.32 8.34 -3 8 C-2.37240135 5.07120629 -1.41377341 2.63904371 0 0 Z " fill="#F37404" transform="translate(830,319)"/>
<path d="M0 0 C0.66 0 1.32 0 2 0 C1.01 3.3 0.02 6.6 -1 10 C-2.10191901 5.59232396 -1.58706842 4.1077065 0 0 Z " fill="#1D1516" transform="translate(628,591)"/>
<path d="M0 0 C0.99 0.33 1.98 0.66 3 1 C1.68 3.31 0.36 5.62 -1 8 C-1.93065133 5.39417629 -2.14917407 4.35801776 -1.0625 1.75 C-0.711875 1.1725 -0.36125 0.595 0 0 Z " fill="#EB7407" transform="translate(698,560)"/>
<path d="M0 0 C2.64 0.99 5.28 1.98 8 3 C6.25 4.125 6.25 4.125 4 5 C1.75 4.125 1.75 4.125 0 3 C0 2.01 0 1.02 0 0 Z " fill="#1A1113" transform="translate(505,562)"/>
<path d="M0 0 C0.66 0.66 1.32 1.32 2 2 C1.01 3.98 0.02 5.96 -1 8 C-1.66 7.67 -2.32 7.34 -3 7 C-1.125 1.125 -1.125 1.125 0 0 Z " fill="#EF7404" transform="translate(716,528)"/>
<path d="M0 0 C0.66 0.33 1.32 0.66 2 1 C0.25 6.75 0.25 6.75 -2 9 C-1.125 2.25 -1.125 2.25 0 0 Z " fill="#211314" transform="translate(200,512)"/>
<path d="M0 0 C0.66 0.99 1.32 1.98 2 3 C1.01 4.98 0.02 6.96 -1 9 C-1.66 9 -2.32 9 -3 9 C-2.01 6.03 -1.02 3.06 0 0 Z " fill="#181117" transform="translate(676,486)"/>
<path d="M0 0 C1.32 0.33 2.64 0.66 4 1 C1.69 2.65 -0.62 4.3 -3 6 C-3 5.01 -3 4.02 -3 3 C-2.34 3 -1.68 3 -1 3 C-0.67 2.01 -0.34 1.02 0 0 Z " fill="#251715" transform="translate(451,483)"/>
<path d="M0 0 C1 2 1 2 0.375 4.5625 C-1 7 -1 7 -3.625 7.8125 C-4.40875 7.874375 -5.1925 7.93625 -6 8 C-4.02 5.36 -2.04 2.72 0 0 Z " fill="#DD7005" transform="translate(503,431)"/>
<path d="M0 0 C-1.65 1.32 -3.3 2.64 -5 4 C-5.33 2.68 -5.66 1.36 -6 0 C-3.50907189 -1.24546405 -2.58919267 -0.7767578 0 0 Z " fill="#301815" transform="translate(644,393)"/>
<path d="M0 0 C0.99 0.33 1.98 0.66 3 1 C1.35 2.65 -0.3 4.3 -2 6 C-2 4.35 -2 2.7 -2 1 C-1.34 0.67 -0.68 0.34 0 0 Z " fill="#EB7003" transform="translate(549,346)"/>
<path d="M0 0 C0.33 0.66 0.66 1.32 1 2 C1.66 2.33 2.32 2.66 3 3 C2.67 4.32 2.34 5.64 2 7 C1.01 7 0.02 7 -1 7 C-0.67 4.69 -0.34 2.38 0 0 Z " fill="#261512" transform="translate(649,340)"/>
<path d="M0 0 C0.66 1.32 1.32 2.64 2 4 C0.125 5.0625 0.125 5.0625 -2 6 C-2.66 5.67 -3.32 5.34 -4 5 C-2.68 3.35 -1.36 1.7 0 0 Z " fill="#E97104" transform="translate(592,312)"/>
<path d="M0 0 C0 0.99 0 1.98 0 3 C-2.5 4.6875 -2.5 4.6875 -5 6 C-5.66 5.34 -6.32 4.68 -7 4 C-4.69 2.68 -2.38 1.36 0 0 Z " fill="#EA7507" transform="translate(408,309)"/>
<path d="M0 0 C0.33 0.66 0.66 1.32 1 2 C0.67 2.99 0.34 3.98 0 5 C-1.98 5 -3.96 5 -6 5 C-4.06745228 2.9754262 -2.36841312 1.57894208 0 0 Z " fill="#EA7606" transform="translate(784,275)"/>
</svg>
